<svg width="490" height="326" viewBox="0 0 490 326" fill="none" xmlns="http://www.w3.org/2000/svg">
<g clip-path="url(#clip0_426:431)">
<path d="M252.755 248.847C312.892 248.847 361.643 200.195 361.643 140.18C361.643 80.1652 312.892 31.5134 252.755 31.5134C192.617 31.5134 143.866 80.1652 143.866 140.18C143.866 200.195 192.617 248.847 252.755 248.847Z" fill="url(#paint0_linear_426:431)"/>
<path d="M326.962 259.502C332.315 257.697 336.955 253.852 339.664 248.922C340.43 247.562 341.055 245.999 340.849 244.453C340.797 244.138 340.717 243.765 340.432 243.618C340.177 243.471 339.832 243.552 339.544 243.633C330.602 246.041 321.149 250.098 311.764 249.67C311.334 249.663 310.905 249.628 310.53 249.794C310.069 249.987 309.776 250.411 309.569 250.866C308.859 252.341 308.244 255.132 308.477 256.792C308.761 258.768 310.676 259.055 312.359 259.48C317.151 260.696 322.184 261.115 326.962 259.502Z" fill="#F8AE9D"/>
<path d="M327.788 248.427C328.509 248.123 329.257 247.821 330.031 247.804C330.804 247.787 331.657 248.2 331.903 248.947C332.067 249.463 331.916 250.004 331.708 250.487C331.145 251.736 330.156 252.749 329.111 253.648C325.109 257.016 319.981 259.053 314.736 259.374C312.415 259.51 309.984 259.301 307.939 258.213C308.96 256.971 308.758 255.197 308.868 253.627C309.196 249.031 313.12 250.777 316.27 250.767C320.223 250.684 324.157 249.915 327.788 248.427Z" fill="#F8AE9D"/>
<path d="M207.986 214.435L207.807 214.946C206.549 218.585 205.575 222.342 205.173 226.194C204.435 233.27 205.827 241.549 211.161 246.687C218.272 253.539 229.68 254.598 238.954 252.967C242.75 252.305 246.324 250.72 249.361 248.353C252.383 251.085 255.631 254.077 258.333 257.118C263.762 255.223 268.929 252.652 273.712 249.465C285.029 254.637 296.573 258.127 308.761 260.655C310.154 257.196 311.132 253.585 311.674 249.897C311.769 249.299 304.172 244.183 303.296 243.455C300.667 241.244 295.189 236.189 295.189 236.189C295.189 236.189 302.093 230.321 305.113 227.566C308.308 224.703 311.372 221.698 314.298 218.561C316.714 215.969 319.075 213.233 320.556 209.998C322.037 206.792 322.581 202.999 321.343 199.666C317.435 189.291 301.66 192.938 294.332 196.513C288.274 199.478 282.969 203.799 277.862 208.179C275.803 209.92 273.771 211.717 271.768 213.488C270.189 211.863 268.446 209.751 266.955 208.042C265.351 206.189 263.516 204.447 261.299 203.356C258.969 202.178 256.819 202.345 254.333 201.993C253.219 201.833 252.136 201.503 251.051 201.315C247.796 200.723 244.35 201.356 241.489 203.027C238.774 204.614 236.569 206.496 233.382 207.105C229.763 207.793 225.56 207.386 221.931 206.902C218.673 206.453 215.363 205.717 212.118 206.354C210.768 206.619 210.253 208.497 209.807 209.576C209.21 211.139 208.584 212.758 207.986 214.435ZM236.739 94.7666C236.739 94.7666 227.978 93.3756 225.625 108.811C223.011 125.97 216.03 123.148 204.945 137.081C198.465 145.222 205.284 159.6 219.139 159.315C232.994 159.037 245.507 155.04 253.477 156.75C261.447 158.46 261.885 138.089 254.021 131.803C246.158 125.518 262.924 107.469 252.707 99.4316C242.49 91.3941 236.739 94.7666 236.739 94.7666Z" fill="#173637"/>
<path d="M184.37 162.828C183.571 161.19 183.619 159.286 183.907 157.51C185.156 149.885 190.51 143.514 196.647 138.845C202.804 134.164 209.852 130.822 216.33 126.628C218.011 125.535 219.696 124.359 221.627 123.768C223.557 123.178 225.801 123.242 227.394 124.484C228.52 125.355 229.17 126.703 229.549 128.051C230.378 131.003 230.06 134.128 229.554 137.122C228.921 140.898 227.993 144.635 226.468 148.106C225.246 150.906 223.256 153.787 220.266 154.335C219.401 157.681 217.619 160.817 215.121 163.216C212.263 165.967 208.64 167.766 204.879 169.022C201.414 170.182 197.625 170.94 194.14 169.857C192.072 169.227 190.25 168.013 188.468 166.775C186.878 165.721 185.229 164.567 184.37 162.828ZM215.682 157.744L217.727 154.503C217.292 154.549 216.88 154.633 216.465 154.801C215.341 155.286 214.665 157.052 215.682 157.744Z" fill="#173637"/>
<path d="M253.582 108.34C253.688 108.913 253.707 109.514 253.669 110.199C253.436 114.201 252.574 118.142 251.114 121.876C250.221 124.091 249.128 126.275 247.583 128.109C246.941 128.871 246.215 129.574 245.266 129.846C244.288 130.116 243.056 130.155 242.087 129.912C241.231 133.442 241.588 140.106 244.642 142.609C245.575 143.367 246.685 143.84 247.796 144.257C249.959 145.09 252.212 145.725 254.466 146.216C257.035 146.769 259.834 147.183 261.638 149.068C261.864 149.3 262.088 149.618 261.997 149.931C261.937 150.13 261.792 150.27 261.618 150.382C260.197 151.532 258.442 152.163 256.686 152.765C253.606 153.804 250.443 154.67 247.227 155.25C243.868 155.857 240.399 156.147 236.997 155.781C234.367 155.484 231.771 154.816 229.384 153.637C226.883 152.398 224.322 151.388 221.734 150.206C219.544 149.202 217.386 148.054 215.015 147.646C216.136 145.52 218.473 144.327 220.801 143.762C223.129 143.226 225.563 143.178 227.918 142.727C228.694 142.567 229.47 142.379 230.135 141.903C231.959 140.588 231.46 137.666 231.489 135.752L231.581 129.695C231.31 126.805 230.116 124.387 229.068 121.742C227.469 117.689 227.138 113.083 228.547 108.932C229.956 104.81 233.16 101.23 237.277 99.7777C241.393 98.3254 246.335 99.1431 249.495 102.163C251.499 104.108 253.133 105.847 253.582 108.34Z" fill="#F8AE9D"/>
<path d="M240.922 95.4615C245.025 95.0045 248.764 97.0094 251.536 100.118C253.868 102.724 255.239 106.163 255.17 109.619C255.16 110.112 255.104 110.65 254.825 111.093C254.084 112.156 252.472 111.765 251.267 111.291C249.303 110.534 247.841 109.427 246.06 108.494C244.279 107.56 242.117 107.697 240.523 106.408C239.019 105.166 233.852 102.549 233.712 100.526C233.537 98.0532 238.077 96.0336 239.974 95.6223C240.246 95.5381 240.562 95.4995 240.922 95.4615Z" fill="#173637"/>
<path d="M229.102 101.059C225.633 103.292 224.004 107.204 223.823 111.361C223.665 114.851 224.781 118.381 227.022 121.016C227.343 121.392 227.726 121.774 228.223 121.942C229.47 122.298 230.472 120.979 231.106 119.852C232.149 118.026 232.582 116.246 233.371 114.4C234.161 112.554 235.923 111.296 236.342 109.292C236.722 107.38 239.069 102.094 237.896 100.438C236.466 98.4107 231.669 99.7076 229.939 100.586C229.674 100.692 229.406 100.861 229.102 101.059Z" fill="#173637"/>
<path d="M259.963 148.185C260.511 147.936 261.167 148.118 261.532 148.609C265.625 154.329 267.205 161.497 268.589 168.405C270.159 176.258 271.557 184.137 272.897 192.016C272.977 192.417 273.028 192.846 272.85 193.215C272.673 193.584 272.269 193.778 271.894 193.944C269.529 195.08 267.136 196.186 264.77 197.322C262.218 191.527 260.378 185.444 259.291 179.208C257.772 183.042 255.029 186.373 251.532 188.549C254.138 192.274 257.346 199.724 260.475 203.001C260.954 203.522 263.915 202.71 264.577 202.491C264.988 203.669 263.061 202.411 263.071 203.611C261.292 203.87 259.017 202.807 257.188 202.579C254.988 202.317 252.754 202.312 250.546 202.536C246.875 202.937 243.306 204.083 240.045 205.805C238.423 206.667 236.868 207.646 235.39 208.735C234.116 209.688 230.961 211.926 230.961 211.926C230.729 212.094 229.645 211.849 229.388 211.788C228.639 211.661 227.886 211.564 227.13 211.496C225.232 211.349 223.343 211.101 221.472 210.753C217.731 210.068 214.053 209.012 210.525 207.558C210.186 207.296 211.398 204.8 211.462 204.315C211.398 204.771 204.448 204.209 203.763 204.084C201.023 203.528 198.25 203.229 195.51 202.644C196.737 191.633 200.106 180.997 203.416 170.445C204.711 166.293 206.034 162.141 207.869 158.226C209.822 154.055 212.344 150.149 215.375 146.68C215.462 146.596 215.606 146.541 215.72 146.571C217.175 146.936 226.045 149.214 230.459 150.853C232.707 151.716 234.986 152.493 237.294 153.271C238.206 153.57 239.146 153.87 240.091 153.856C240.721 153.837 241.353 153.704 241.957 153.57C248.105 152.206 254.255 150.728 259.963 148.185Z" fill="#0F8B8D"/>
<path d="M219.943 170.125C219.69 171.692 219.351 173.287 219.012 174.854C218.187 178.409 217.13 181.905 215.846 185.322C215.19 187.026 214.506 188.702 213.736 190.376C213.354 191.204 212.959 192.027 212.553 192.844C212.347 193.241 212.14 193.667 211.933 194.063C211.756 194.404 211.551 194.715 211.375 195.027C212.607 194.988 218.686 195.338 219.944 195.443" stroke="white" stroke-width="1.376" stroke-miterlimit="10" stroke-linecap="round"/>
<path d="M220.142 196.674C220.014 197.477 219.859 198.275 219.676 199.067L219.124 201.459C218.942 202.142 218.528 202.993 218.517 203.708C218.519 203.565 223.393 203.153 223.852 203.103C228.927 202.608 234.029 202.314 239.102 201.991C242.398 201.784 245.633 201.861 248.925 201.883C249.898 201.897 251.045 201.8 251.572 201.008C252.012 200.329 251.654 199.466 252.006 198.843C252.235 198.903 254.888 199.573 254.86 199.515C254.965 200.117 255.175 201.377 255.801 201.672C256.019 201.755 256.252 201.797 256.486 201.797C256.829 201.802 257.174 201.75 257.518 201.698C257.571 201.698 257.622 201.679 257.662 201.643C257.72 201.587 257.664 201.501 257.608 201.414C256.828 200.263 256.419 198.9 256.437 197.51C255.614 196.954 254.794 196.313 254.088 195.617C253.525 195.037 253.107 194.288 252.484 193.792C251.834 193.24 251.199 193.573 250.48 193.762C249.647 193.949 248.813 194.166 248.008 194.411C246.426 194.901 244.842 195.505 243.509 196.486C243.046 196.821 242.611 197.186 242.065 197.349C241.547 197.513 240.974 197.504 240.43 197.496C237.082 197.417 233.734 197.252 230.418 196.887C227.016 196.521 224.696 196.571 220.239 195.904C220.239 195.932 220.235 196.189 220.142 196.674Z" fill="#F8AE9D"/>
<path d="M257.022 169.807C257.823 173.261 258.4 176.749 258.791 180.308" stroke="white" stroke-width="1.376" stroke-miterlimit="10" stroke-linecap="round"/>
<path d="M324.547 164.109L314.718 207.852L240.087 206.72C240.126 204.149 242.248 202.067 244.854 202.106L262.688 202.377L271.576 162.134C271.854 160.824 273.042 159.899 274.358 159.919L321.822 160.639C323.625 160.695 324.946 162.344 324.547 164.109Z" fill="#173637"/>
<path d="M227.053 270.989C227.398 268.994 228.374 266.952 229.289 265.165C233.066 257.85 239.816 252.695 247.086 249.147C247.835 248.787 248.586 248.427 249.362 248.153C249.304 248.238 249.245 248.322 249.187 248.436L249.186 248.464H249.157C249.244 248.408 249.302 248.352 249.389 248.296C252.326 250.941 255.461 253.846 258.137 256.773C256.368 258.203 253.802 259.365 252.527 260.316C249.516 262.528 246.617 264.885 243.493 266.952C239.298 269.775 234.828 271.822 229.833 272.717C227.909 273.06 226.901 273.416 226.924 271.93C226.956 271.702 226.99 271.388 227.053 270.989Z" fill="#F8AE9D"/>
<path d="M231.925 265.233C233.871 261.577 236.891 258.793 240.193 256.329C242.51 254.592 244.968 253.03 247.311 251.436C247.976 250.989 249.283 249.78 250.409 249.197C252.753 251.319 255.153 253.555 257.323 255.874C250.155 260.223 243.769 265.899 235.905 268.98C235.186 269.255 234.436 269.529 233.663 269.546C232.89 269.563 232.064 269.236 231.616 268.6C230.915 267.619 231.365 266.282 231.925 265.233Z" fill="#F8AE9D"/>
<path d="M370.011 255.596C369.485 255.337 369.155 254.768 369.2 254.201C369.221 253.901 369.334 253.614 369.524 253.379C369.713 253.144 369.97 252.973 370.259 252.887C370.422 252.84 370.596 252.823 370.766 252.805C371.786 252.689 372.809 252.592 373.812 252.354C374.028 252.3 374.252 252.291 374.472 252.328C374.691 252.365 374.9 252.447 375.086 252.568C375.607 252.9 375.839 253.387 375.774 253.988C375.708 254.59 375.355 255.003 374.785 255.218C374.677 255.259 374.566 255.287 374.452 255.303C373.281 255.475 372.112 255.667 370.929 255.755C370.606 255.779 370.3 255.74 370.011 255.596ZM374.73 259.76C374.511 260.211 374.137 260.514 373.671 260.631C372.523 260.915 371.363 261.179 370.176 261.225C369.093 261.267 368.37 260.252 368.725 259.244C368.929 258.667 369.375 258.34 369.973 258.277C370.743 258.197 371.49 258.027 372.25 257.903C372.492 257.864 372.717 257.78 372.947 257.705C373.227 257.614 373.529 257.608 373.812 257.689C374.096 257.77 374.348 257.934 374.537 258.16C374.918 258.607 374.993 259.23 374.73 259.76ZM378.084 256.741C378.277 256.348 378.589 256.097 379.006 255.972C379.633 255.786 380.27 255.63 380.914 255.507C381.207 255.455 381.492 255.363 381.76 255.234C381.955 255.136 382.167 255.08 382.385 255.068C382.602 255.056 382.82 255.089 383.024 255.165C383.228 255.241 383.414 255.358 383.571 255.508C383.728 255.659 383.852 255.841 383.936 256.041C384.276 256.861 383.868 257.761 383.005 258.084C382.885 258.131 382.761 258.167 382.635 258.192C381.682 258.359 380.737 258.573 379.795 258.796C379.211 258.933 378.691 258.798 378.285 258.338C377.888 257.887 377.816 257.282 378.084 256.741ZM379.735 260.723C380.363 261.054 380.61 261.56 380.619 262.186C380.627 262.804 380.345 263.281 379.799 263.584C379.599 263.693 379.385 263.775 379.162 263.827C378.385 264.014 377.612 264.206 376.835 264.393C376.339 264.51 375.866 264.456 375.456 264.13C375.007 263.77 374.814 263.291 374.918 262.726C375.027 262.13 375.397 261.729 375.98 261.551C376.432 261.419 376.888 261.301 377.348 261.199C377.696 261.119 378.021 261.021 378.326 260.805C378.779 260.481 379.285 260.505 379.735 260.723ZM388.977 262.348C388.822 262.664 388.59 262.912 388.268 263.062C388.089 263.149 387.902 263.218 387.71 263.269C387.06 263.43 386.415 263.609 385.771 263.787C384.795 264.057 383.902 263.432 383.85 262.467C383.816 261.861 384.157 261.317 384.753 261.043C385.195 260.839 385.666 260.72 386.137 260.609C386.389 260.549 386.622 260.469 386.847 260.335C387.456 259.971 388.141 260.059 388.658 260.542C389.148 261.001 389.278 261.734 388.977 262.348ZM361.477 254.506C361.648 254.192 361.879 253.968 362.185 253.828C362.392 253.729 362.613 253.666 362.841 253.641C363.449 253.584 364.061 253.507 364.672 253.48C365.78 253.433 366.534 254.413 366.185 255.446C366.002 255.988 365.596 256.306 365.039 256.417C364.86 256.453 364.671 256.451 364.487 256.474C363.994 256.531 363.495 256.554 363.002 256.632C362.418 256.727 361.932 256.509 361.592 256.025C361.247 255.542 361.24 255.021 361.477 254.506ZM378.716 248.555C379.297 248.853 379.603 249.385 379.559 249.973C379.51 250.606 379.176 251.029 378.592 251.259C378.46 251.314 378.32 251.347 378.178 251.355C377.637 251.383 377.096 251.399 376.555 251.402C376.252 251.401 375.957 251.304 375.713 251.125C375.212 250.76 374.988 250.166 375.134 249.582C375.284 248.989 375.753 248.533 376.354 248.476C376.948 248.42 377.549 248.42 378.146 248.407C378.364 248.401 378.57 248.468 378.716 248.555Z" fill="#E1E4E5"/>
<path d="M91.251 131.624C91.251 131.624 87.1421 115.894 93.486 108.787C100.3 101.143 105.391 108.686 100.032 119.451C96.3568 126.842 91.251 131.624 91.251 131.624ZM88.6083 149.049C88.6083 149.049 74.4059 141.05 73.7341 131.584C73.0056 121.414 81.9998 123.025 86.0064 134.334C88.7411 142.088 88.6083 149.049 88.6083 149.049ZM88.6306 159.386C88.6306 159.386 104.035 153.889 106.372 144.684C108.889 134.785 99.7362 134.865 93.8007 145.327C89.7386 152.501 88.6306 159.386 88.6306 159.386ZM89.3918 166.859C89.3918 166.859 73.1003 165.551 68.4933 157.265C63.5377 148.35 72.4007 146.057 80.808 154.622C86.5694 160.485 89.3918 166.859 89.3918 166.859Z" fill="#A54657"/>
<path d="M94.4905 117.621C91.3131 127.479 88.9039 137.606 88.1313 147.939C87.3746 158.11 88.2517 168.312 90.2579 178.292C90.7801 180.91 91.3844 183.519 92.041 186.1L93.0308 185.589C91.3033 178.714 89.9721 171.734 89.3427 164.663C88.4613 154.835 89.0427 144.941 90.9461 135.261C92.1014 129.401 93.6907 123.636 95.5211 117.953C95.7361 117.285 94.7006 116.966 94.4905 117.621Z" fill="#173637"/>
<path d="M47.1912 164.262C47.1912 164.262 39.4987 149.932 43.9953 141.539C48.8207 132.512 55.5435 138.653 52.8649 150.373C51.0301 158.417 47.1917 164.262 47.1917 164.262H47.1912ZM48.7189 181.819C48.7189 181.819 33.0318 177.368 30.1534 168.324C27.0549 158.609 36.1765 158.068 42.73 168.124C47.2108 175.021 48.7189 181.819 48.7189 181.819ZM51.1711 191.862C51.1711 191.862 64.8524 182.911 64.9608 173.417C65.08 163.204 56.2018 165.425 52.8915 176.984C50.6294 184.91 51.1711 191.862 51.1711 191.862ZM53.6674 198.948C53.6674 198.948 37.523 201.491 31.0969 194.515C24.1835 187.009 32.2604 182.705 42.4464 189.063C49.4251 193.412 53.6674 198.948 53.6674 198.948Z" fill="#A54657"/>
<path d="M47.0487 149.892C46.2772 160.217 46.3164 170.626 47.9944 180.851C49.6495 190.916 52.9014 200.627 57.1976 209.859C58.3245 212.281 59.5145 214.673 60.7665 217.032L61.6087 216.303C58.3132 210.025 55.3776 203.551 53.104 196.825C49.9364 187.478 48.1757 177.724 47.7499 167.868C47.4956 161.902 47.6846 155.925 48.1283 149.973C48.18 149.272 47.0987 149.205 47.0487 149.892Z" fill="#173637"/>
<path d="M429.415 185.516C429.415 185.516 426.94 173.473 432.014 168.359C437.465 162.856 441.009 168.755 436.532 176.672C433.461 182.107 429.415 185.516 429.415 185.516ZM426.725 198.569C426.725 198.569 416.318 191.964 416.188 184.789C416.044 177.08 422.772 178.654 425.347 187.354C427.102 193.318 426.725 198.569 426.725 198.569ZM426.329 206.377C426.329 206.377 438.181 202.837 440.313 195.979C442.609 188.604 435.694 188.3 430.794 195.965C427.44 201.222 426.329 206.377 426.329 206.377ZM426.605 212.05C426.605 212.05 414.355 210.415 411.206 203.975C407.82 197.045 414.605 195.666 420.612 202.468C424.729 207.124 426.605 212.05 426.605 212.05Z" fill="#A54657"/>
<path d="M432.42 175.07C429.628 182.388 427.404 189.94 426.409 197.713C425.431 205.363 425.686 213.103 426.803 220.718C427.096 222.716 427.441 224.706 427.838 226.686L428.606 226.339C427.576 221.079 426.849 215.755 426.656 210.39C426.383 202.934 427.216 195.485 429.04 188.25C430.146 183.871 431.577 179.581 433.185 175.362C433.374 174.865 432.605 174.583 432.42 175.07Z" fill="#173637"/>
<path d="M399.223 147.391C399.223 147.391 396.748 135.349 401.822 130.234C407.273 124.732 410.817 130.63 406.34 138.548C403.27 143.983 399.223 147.391 399.223 147.391ZM396.532 160.445C396.532 160.445 386.126 153.84 385.997 146.665C385.852 138.956 392.58 140.529 395.154 149.229C396.91 155.194 396.532 160.445 396.532 160.445ZM396.137 168.252C396.137 168.252 407.989 164.713 410.121 157.855C412.417 150.479 405.502 150.176 400.602 157.84C397.248 163.097 396.137 168.252 396.137 168.252ZM396.413 173.925C396.413 173.925 384.163 172.29 381.014 165.85C377.628 158.921 384.412 157.541 390.42 164.343C394.536 168.999 396.413 173.925 396.413 173.925Z" fill="#A54657"/>
<path d="M402.228 136.946C399.435 144.263 397.212 151.815 396.216 159.588C395.239 167.239 395.494 174.978 396.611 182.594C396.9 184.592 397.253 186.586 397.646 188.562L398.414 188.214C397.383 182.954 396.656 177.63 396.464 172.265C396.19 164.809 397.024 157.36 398.847 150.125C399.954 145.746 401.384 141.456 402.993 137.237C403.182 136.74 402.413 136.459 402.228 136.946Z" fill="#173637"/>
<path d="M276.352 275.888C275.827 275.629 275.497 275.06 275.541 274.494C275.563 274.193 275.676 273.906 275.865 273.671C276.055 273.436 276.311 273.265 276.601 273.179C276.764 273.132 276.937 273.115 277.107 273.097C278.128 272.981 279.15 272.884 280.154 272.646C280.37 272.592 280.594 272.583 280.814 272.62C281.033 272.657 281.242 272.739 281.428 272.861C281.949 273.192 282.18 273.68 282.116 274.279C282.05 274.883 281.696 275.295 281.126 275.511C281.019 275.55 280.908 275.579 280.794 275.595C279.623 275.767 278.454 275.958 277.271 276.046C276.948 276.071 276.641 276.032 276.352 275.888ZM281.072 280.052C280.853 280.503 280.479 280.806 280.013 280.923C278.864 281.207 277.705 281.471 276.518 281.518C275.435 281.559 274.712 280.544 275.067 279.536C275.271 278.959 275.717 278.632 276.315 278.569C277.084 278.489 277.832 278.32 278.592 278.195C278.834 278.156 279.059 278.071 279.289 277.997C279.569 277.905 279.87 277.9 280.154 277.981C280.437 278.062 280.69 278.226 280.879 278.452C281.26 278.899 281.334 279.522 281.072 280.052ZM284.426 277.033C284.619 276.64 284.931 276.389 285.347 276.265C285.975 276.078 286.612 275.922 287.256 275.799C287.549 275.747 287.834 275.655 288.102 275.525C288.297 275.428 288.509 275.371 288.727 275.36C288.944 275.348 289.162 275.381 289.366 275.457C289.57 275.532 289.756 275.649 289.913 275.8C290.07 275.951 290.194 276.132 290.277 276.333C290.618 277.153 290.21 278.053 289.346 278.376C289.227 278.422 289.103 278.459 288.977 278.484C288.024 278.651 287.079 278.865 286.137 279.087C285.553 279.224 285.033 279.09 284.627 278.63C284.23 278.178 284.158 277.574 284.426 277.033ZM286.076 281.015C286.704 281.346 286.952 281.852 286.96 282.478C286.969 283.096 286.686 283.573 286.141 283.876C285.94 283.985 285.726 284.067 285.504 284.119C284.727 284.306 283.954 284.498 283.176 284.685C282.681 284.802 282.207 284.748 281.798 284.422C281.349 284.062 281.155 283.583 281.26 283.017C281.369 282.422 281.738 282.02 282.321 281.844C282.772 281.708 283.229 281.596 283.69 281.491C284.038 281.411 284.363 281.313 284.667 281.097C285.12 280.773 285.627 280.797 286.076 281.015ZM295.319 282.64C295.164 282.956 294.932 283.204 294.61 283.354C294.431 283.441 294.244 283.51 294.052 283.561C293.401 283.723 292.757 283.901 292.113 284.079C291.137 284.349 290.244 283.724 290.191 282.759C290.158 282.153 290.5 281.609 291.095 281.335C291.537 281.131 292.008 281.012 292.479 280.901C292.731 280.841 292.964 280.761 293.189 280.627C293.798 280.263 294.483 280.352 295 280.834C295.489 281.293 295.62 282.026 295.319 282.64ZM267.819 274.798C267.99 274.484 268.221 274.26 268.527 274.12C268.733 274.021 268.955 273.958 269.183 273.933C269.791 273.876 270.403 273.799 271.013 273.772C272.121 273.725 272.876 274.705 272.526 275.738C272.344 276.279 271.937 276.598 271.381 276.709C271.202 276.745 271.013 276.743 270.829 276.766C270.336 276.823 269.837 276.846 269.344 276.924C268.759 277.018 268.274 276.801 267.934 276.317C267.589 275.834 267.582 275.312 267.819 274.798ZM285.057 268.848C285.639 269.145 285.945 269.676 285.9 270.265C285.852 270.898 285.518 271.32 284.934 271.55C284.802 271.606 284.662 271.638 284.52 271.648C283.978 271.673 283.438 271.693 282.896 271.694C282.594 271.694 282.299 271.596 282.055 271.417C281.554 271.052 281.33 270.458 281.476 269.874C281.626 269.281 282.094 268.825 282.696 268.768C283.29 268.711 283.891 268.711 284.488 268.699C284.706 268.693 284.911 268.76 285.057 268.848ZM187.007 266.664C186.482 266.405 186.152 265.837 186.196 265.27C186.218 264.969 186.331 264.682 186.52 264.447C186.71 264.213 186.966 264.041 187.256 263.956C187.419 263.909 187.592 263.891 187.762 263.873C188.783 263.758 189.805 263.661 190.809 263.423C191.025 263.368 191.249 263.359 191.468 263.396C191.688 263.433 191.897 263.515 192.083 263.637C192.604 263.969 192.835 264.456 192.771 265.056C192.705 265.658 192.351 266.071 191.781 266.287C191.674 266.327 191.563 266.355 191.449 266.371C190.278 266.543 189.109 266.735 187.926 266.823C187.603 266.847 187.296 266.809 187.007 266.664ZM191.727 270.828C191.508 271.28 191.134 271.582 190.668 271.699C189.519 271.983 188.36 272.247 187.173 272.294C186.09 272.335 185.367 271.32 185.722 270.312C185.926 269.735 186.372 269.408 186.97 269.345C187.74 269.266 188.487 269.096 189.247 268.972C189.489 268.932 189.714 268.848 189.944 268.773C190.224 268.682 190.526 268.676 190.809 268.757C191.092 268.838 191.345 269.002 191.534 269.228C191.915 269.675 191.989 270.298 191.727 270.828ZM195.081 267.809C195.274 267.417 195.586 267.165 196.003 267.041C196.63 266.854 197.267 266.699 197.911 266.576C198.204 266.523 198.489 266.431 198.757 266.302C198.952 266.204 199.164 266.148 199.382 266.136C199.599 266.124 199.817 266.157 200.021 266.233C200.225 266.309 200.411 266.426 200.568 266.577C200.725 266.727 200.849 266.909 200.932 267.11C201.273 267.929 200.865 268.829 200.001 269.152C199.882 269.199 199.758 269.235 199.632 269.261C198.679 269.427 197.734 269.642 196.792 269.864C196.208 270.001 195.688 269.866 195.282 269.406C194.885 268.955 194.813 268.351 195.081 267.809ZM196.731 271.791C197.359 272.122 197.607 272.628 197.615 273.254C197.624 273.872 197.341 274.35 196.796 274.652C196.595 274.761 196.381 274.843 196.159 274.895C195.382 275.082 194.609 275.274 193.831 275.462C193.336 275.579 192.862 275.524 192.453 275.198C192.004 274.838 191.81 274.359 191.915 273.794C192.024 273.198 192.393 272.797 192.976 272.62C193.427 272.484 193.884 272.373 194.345 272.267C194.693 272.188 195.018 272.089 195.323 271.874C195.775 271.549 196.282 271.574 196.731 271.791ZM205.973 273.417C205.819 273.732 205.587 273.981 205.265 274.131C205.086 274.217 204.899 274.287 204.707 274.338C204.057 274.499 203.412 274.677 202.768 274.855C201.792 275.125 200.899 274.501 200.846 273.535C200.813 272.929 201.154 272.385 201.75 272.111C202.192 271.907 202.663 271.788 203.134 271.677C203.386 271.617 203.619 271.537 203.844 271.403C204.453 271.039 205.138 271.128 205.655 271.611C206.144 272.07 206.275 272.802 205.973 273.417ZM178.474 265.575C178.645 265.26 178.876 265.036 179.182 264.896C179.388 264.797 179.61 264.734 179.838 264.709C180.446 264.652 181.058 264.575 181.668 264.548C182.776 264.502 183.531 265.482 183.181 266.514C182.999 267.056 182.592 267.374 182.036 267.486C181.857 267.521 181.668 267.52 181.484 267.543C180.991 267.6 180.492 267.622 179.999 267.701C179.414 267.795 178.929 267.577 178.589 267.093C178.244 266.61 178.237 266.089 178.474 265.575ZM195.712 259.624C196.294 259.921 196.6 260.453 196.555 261.041C196.507 261.674 196.173 262.097 195.589 262.327C195.457 262.382 195.317 262.415 195.175 262.424C194.633 262.449 194.093 262.469 193.551 262.471C193.247 262.472 192.963 262.373 192.71 262.193C192.209 261.828 191.985 261.234 192.131 260.65C192.281 260.057 192.749 259.602 193.351 259.545C193.945 259.488 194.546 259.488 195.143 259.475C195.361 259.47 195.566 259.537 195.712 259.624ZM127.855 248.217C127.33 247.958 126.999 247.389 127.044 246.822C127.065 246.521 127.178 246.235 127.368 246C127.557 245.765 127.814 245.594 128.103 245.508C128.267 245.461 128.44 245.444 128.61 245.426C129.631 245.31 130.653 245.213 131.656 244.975C131.872 244.921 132.097 244.912 132.316 244.949C132.535 244.986 132.744 245.068 132.93 245.189C133.451 245.521 133.683 246.008 133.618 246.609C133.553 247.211 133.199 247.624 132.629 247.839C132.521 247.88 132.41 247.908 132.297 247.923C131.126 248.096 129.957 248.287 128.774 248.375C128.451 248.399 128.144 248.361 127.855 248.217ZM132.575 252.381C132.355 252.832 131.982 253.135 131.515 253.252C130.367 253.536 129.207 253.8 128.02 253.846C126.937 253.888 126.215 252.873 126.57 251.865C126.773 251.288 127.22 250.961 127.817 250.898C128.587 250.818 129.334 250.648 130.094 250.524C130.337 250.484 130.561 250.4 130.792 250.326C131.072 250.235 131.373 250.229 131.657 250.31C131.94 250.391 132.193 250.555 132.382 250.781C132.763 251.228 132.837 251.851 132.575 252.381ZM135.928 249.362C136.121 248.969 136.434 248.718 136.85 248.593C137.478 248.406 138.115 248.251 138.759 248.128C139.052 248.076 139.336 247.984 139.605 247.854C139.799 247.757 140.012 247.7 140.229 247.689C140.447 247.677 140.664 247.71 140.869 247.785C141.073 247.861 141.259 247.978 141.416 248.129C141.573 248.28 141.697 248.461 141.78 248.662C142.12 249.482 141.712 250.382 140.849 250.704C140.729 250.751 140.606 250.788 140.48 250.813C139.526 250.98 138.582 251.194 137.64 251.417C137.056 251.553 136.536 251.419 136.129 250.959C135.733 250.508 135.66 249.903 135.928 249.362ZM137.579 253.344C138.207 253.675 138.454 254.181 138.463 254.806C138.471 255.425 138.189 255.902 137.644 256.205C137.443 256.314 137.229 256.396 137.007 256.448C136.229 256.635 135.456 256.827 134.678 257.014C134.184 257.131 133.709 257.076 133.3 256.751C132.851 256.391 132.658 255.912 132.763 255.346C132.871 254.751 133.241 254.349 133.824 254.172C134.276 254.04 134.732 253.922 135.192 253.82C135.54 253.74 135.865 253.641 136.17 253.426C136.622 253.102 137.129 253.126 137.579 253.344ZM146.821 254.969C146.667 255.284 146.435 255.533 146.112 255.683C145.933 255.77 145.747 255.839 145.554 255.89C144.904 256.051 144.26 256.23 143.616 256.408C142.639 256.678 141.746 256.053 141.694 255.088C141.661 254.482 142.002 253.938 142.597 253.664C143.04 253.459 143.511 253.341 143.982 253.23C144.233 253.17 144.467 253.09 144.692 252.956C145.3 252.592 145.986 252.68 146.503 253.163C146.992 253.622 147.122 254.355 146.821 254.969ZM119.321 247.127C119.493 246.813 119.723 246.588 120.03 246.449C120.236 246.35 120.458 246.287 120.685 246.262C121.294 246.205 121.905 246.128 122.516 246.101C123.624 246.054 124.378 247.034 124.029 248.067C123.847 248.608 123.44 248.927 122.883 249.038C122.704 249.074 122.515 249.072 122.332 249.095C121.838 249.152 121.34 249.175 120.846 249.253C120.262 249.347 119.777 249.13 119.436 248.646C119.092 248.162 119.084 247.641 119.321 247.127ZM136.56 241.176C137.141 241.473 137.448 242.005 137.403 242.594C137.354 243.227 137.02 243.65 136.436 243.879C136.305 243.935 136.165 243.967 136.023 243.976C135.48 244.002 134.94 244.022 134.399 244.023C134.096 244.022 133.801 243.925 133.557 243.746C133.057 243.381 132.832 242.787 132.978 242.203C133.129 241.61 133.597 241.154 134.198 241.097C134.792 241.04 135.393 241.04 135.991 241.028C136.208 241.022 136.414 241.089 136.56 241.176ZM68.0864 274.043C67.561 273.784 67.2305 273.216 67.2752 272.649C67.2968 272.348 67.4098 272.061 67.5991 271.826C67.7884 271.592 68.045 271.42 68.3347 271.335C68.498 271.288 68.6711 271.27 68.8415 271.252C69.8624 271.137 70.8843 271.04 71.8877 270.802C72.1034 270.748 72.328 270.739 72.5472 270.776C72.7665 270.813 72.9757 270.894 73.1617 271.016C73.6827 271.348 73.9147 271.835 73.8499 272.435C73.784 273.038 73.4301 273.45 72.8606 273.666C72.7533 273.706 72.6419 273.734 72.5285 273.75C71.3574 273.922 70.1879 274.114 69.0054 274.202C68.682 274.226 68.3755 274.188 68.0864 274.043ZM72.8062 278.207C72.5868 278.659 72.2133 278.961 71.7467 279.078C70.5985 279.362 69.4388 279.626 68.2524 279.673C67.1685 279.714 66.446 278.699 66.8015 277.691C67.0046 277.114 67.4516 276.787 68.0483 276.724C68.8187 276.645 69.5656 276.475 70.3262 276.351C70.568 276.311 70.7928 276.227 71.0231 276.152C71.3034 276.061 71.6047 276.055 71.8882 276.136C72.1716 276.217 72.4242 276.381 72.6134 276.607C72.994 277.054 73.0681 277.677 72.8062 278.207ZM76.1594 275.188C76.3527 274.796 76.6652 274.544 77.0817 274.42C77.7096 274.233 78.3465 274.078 78.99 273.955C79.2833 273.902 79.568 273.81 79.836 273.681C80.0307 273.583 80.2434 273.527 80.4609 273.515C80.6784 273.503 80.896 273.536 81.1001 273.612C81.3042 273.688 81.4905 273.805 81.6474 273.956C81.8042 274.106 81.9282 274.288 82.0116 274.489C82.3519 275.309 81.9436 276.208 81.0806 276.531C80.9608 276.578 80.8371 276.614 80.711 276.64C79.7576 276.806 78.813 277.021 77.8711 277.243C77.287 277.38 76.7676 277.245 76.3609 276.785C75.9645 276.334 75.8915 275.73 76.1594 275.188ZM77.8102 279.17C78.4385 279.501 78.6856 280.007 78.6943 280.633C78.7025 281.251 78.4205 281.729 77.875 282.031C77.6745 282.14 77.4602 282.222 77.238 282.274C76.4605 282.461 75.6874 282.654 74.9105 282.841C74.415 282.958 73.9413 282.903 73.5319 282.577C73.0822 282.217 72.8895 281.738 72.994 281.173C73.1029 280.577 73.4726 280.176 74.0551 279.999C74.5059 279.863 74.9627 279.752 75.4239 279.646C75.7718 279.567 76.0963 279.468 76.4017 279.253C76.8541 278.928 77.3605 278.953 77.8102 279.17ZM87.0527 280.796C86.898 281.111 86.6661 281.36 86.3438 281.51C86.1648 281.596 85.978 281.666 85.7857 281.717C85.1357 281.878 84.4916 282.056 83.8475 282.234C82.8708 282.504 81.9779 281.88 81.9251 280.914C81.8924 280.308 82.2332 279.764 82.8288 279.49C83.2715 279.286 83.7424 279.168 84.2134 279.056C84.4655 278.996 84.6985 278.916 84.9233 278.782C85.532 278.418 86.2175 278.507 86.7342 278.99C87.2236 279.449 87.3537 280.182 87.0527 280.796ZM59.5522 272.954C59.7243 272.639 59.9546 272.415 60.2611 272.275C60.4674 272.176 60.6891 272.113 60.9166 272.088C61.5253 272.031 62.1362 271.955 62.7476 271.927C63.8555 271.881 64.6096 272.861 64.26 273.894C64.0782 274.435 63.6715 274.753 63.1145 274.865C62.9359 274.9 62.747 274.899 62.5635 274.922C62.0697 274.979 61.5716 275.001 61.0777 275.08C60.4936 275.174 60.0085 274.956 59.6676 274.472C59.323 273.989 59.3159 273.468 59.5522 272.954ZM76.7915 267.003C77.3724 267.3 77.6789 267.832 77.6343 268.42C77.5853 269.053 77.2516 269.476 76.6679 269.706C76.5373 269.758 76.393 269.797 76.2541 269.803C75.7113 269.828 75.1718 269.848 74.6306 269.85C74.3257 269.851 74.0426 269.752 73.7889 269.572C73.288 269.207 73.0637 268.613 73.2096 268.029C73.3604 267.436 73.8286 266.981 74.4297 266.924C75.0237 266.867 75.6248 266.867 76.222 266.854C76.4393 266.849 76.6456 266.916 76.7915 267.003ZM418.688 280.807C418.163 280.548 417.832 279.98 417.877 279.412C417.898 279.112 418.012 278.825 418.201 278.59C418.39 278.355 418.647 278.184 418.937 278.099C419.1 278.051 419.273 278.034 419.443 278.016C420.464 277.9 421.486 277.803 422.489 277.566C422.705 277.511 422.93 277.502 423.149 277.539C423.368 277.576 423.577 277.658 423.763 277.78C424.284 278.112 424.516 278.599 424.451 279.199C424.386 279.801 424.032 280.214 423.462 280.43C423.355 280.47 423.243 280.498 423.13 280.514C421.959 280.686 420.79 280.878 419.607 280.966C419.284 280.99 418.977 280.952 418.688 280.807ZM423.408 284.971C423.189 285.423 422.815 285.725 422.348 285.842C421.2 286.126 420.04 286.39 418.854 286.437C417.77 286.478 417.048 285.463 417.403 284.455C417.607 283.878 418.053 283.551 418.65 283.488C419.42 283.409 420.167 283.239 420.928 283.115C421.17 283.075 421.394 282.991 421.625 282.916C421.905 282.825 422.206 282.819 422.49 282.9C422.773 282.981 423.026 283.145 423.215 283.371C423.596 283.818 423.67 284.441 423.408 284.971ZM426.761 281.952C426.954 281.56 427.267 281.308 427.683 281.184C428.311 280.997 428.948 280.841 429.592 280.718C429.885 280.666 430.17 280.574 430.438 280.445C430.632 280.347 430.845 280.291 431.062 280.279C431.28 280.267 431.498 280.3 431.702 280.376C431.906 280.452 432.092 280.569 432.249 280.719C432.406 280.87 432.53 281.052 432.613 281.253C432.954 282.072 432.545 282.972 431.682 283.295C431.562 283.342 431.439 283.378 431.313 283.404C430.359 283.57 429.415 283.784 428.473 284.007C427.889 284.144 427.369 284.009 426.962 283.549C426.566 283.098 426.493 282.494 426.761 281.952ZM428.412 285.934C429.04 286.265 429.288 286.771 429.296 287.397C429.305 288.015 429.023 288.493 428.477 288.795C428.277 288.904 428.062 288.986 427.84 289.038C427.063 289.225 426.289 289.418 425.512 289.605C425.017 289.722 424.543 289.667 424.134 289.341C423.684 288.981 423.491 288.502 423.596 287.937C423.705 287.341 424.074 286.94 424.657 286.763C425.109 286.63 425.565 286.512 426.025 286.41C426.373 286.331 426.698 286.232 427.003 286.017C427.456 285.692 427.963 285.717 428.412 285.934ZM437.654 287.56C437.5 287.875 437.268 288.124 436.945 288.274C436.766 288.36 436.58 288.43 436.387 288.481C435.737 288.642 435.093 288.82 434.449 288.998C433.472 289.268 432.579 288.644 432.527 287.678C432.494 287.072 432.835 286.528 433.43 286.254C433.873 286.05 434.344 285.931 434.815 285.82C435.066 285.76 435.3 285.68 435.525 285.546C436.134 285.182 436.819 285.271 437.336 285.754C437.825 286.213 437.955 286.946 437.654 287.56ZM410.154 279.718C410.326 279.403 410.557 279.179 410.863 279.039C411.069 278.94 411.291 278.877 411.519 278.852C412.127 278.795 412.738 278.718 413.35 278.691C414.458 278.645 415.212 279.625 414.862 280.658C414.68 281.199 414.274 281.517 413.717 281.629C413.538 281.664 413.349 281.663 413.165 281.686C412.671 281.743 412.173 281.765 411.679 281.844C411.095 281.938 410.61 281.72 410.27 281.236C409.925 280.753 409.918 280.232 410.154 279.718ZM427.394 273.767C427.975 274.064 428.281 274.596 428.236 275.184C428.187 275.817 427.854 276.24 427.27 276.47C427.138 276.525 426.998 276.558 426.856 276.567C426.313 276.592 425.773 276.612 425.233 276.614C424.93 276.613 424.635 276.515 424.391 276.336C423.89 275.971 423.665 275.377 423.812 274.793C423.962 274.2 424.43 273.745 425.031 273.688C425.626 273.631 426.227 273.631 426.824 273.618C427.041 273.613 427.247 273.68 427.394 273.767Z" fill="#E1E4E5"/>
<path d="M122.365 152.547C122.365 152.547 115.738 127.177 125.969 115.716C136.958 103.387 145.169 115.552 136.526 132.915C130.598 144.835 122.365 152.547 122.365 152.547ZM118.103 180.65C118.103 180.65 95.1971 167.748 94.1136 152.482C92.9387 136.081 107.444 138.678 113.906 156.917C118.316 169.424 118.103 180.65 118.103 180.65ZM118.139 197.321C118.139 197.321 142.982 188.455 146.752 173.61C150.812 157.645 136.05 157.773 126.478 174.646C119.926 186.218 118.139 197.321 118.139 197.321ZM119.367 209.373C119.367 209.373 93.0917 207.264 85.6617 193.901C77.6692 179.522 91.9636 175.824 105.523 189.637C114.814 199.092 119.367 209.373 119.367 209.373Z" fill="#A54657"/>
<path d="M127.59 129.964C122.465 145.862 118.58 162.195 117.334 178.859C116.113 195.263 117.528 211.717 120.764 227.811C121.605 232.035 122.58 236.242 123.639 240.405L125.235 239.581C122.449 228.493 120.302 217.235 119.287 205.832C117.866 189.982 118.803 174.024 121.873 158.412C123.737 148.962 126.3 139.664 129.252 130.499C129.598 129.42 127.929 128.906 127.59 129.964Z" fill="#173637"/>
<path d="M163.649 167.305C163.649 167.305 157.022 141.935 167.253 130.474C178.242 118.144 186.454 130.31 177.81 147.673C171.883 159.593 163.649 167.305 163.649 167.305ZM159.387 195.407C159.387 195.407 136.481 182.506 135.398 167.24C134.223 150.839 148.729 153.436 155.19 171.675C159.601 184.182 159.387 195.407 159.387 195.407ZM159.424 212.079C159.424 212.079 184.267 203.213 188.036 188.368C192.096 172.403 177.335 172.531 167.762 189.404C161.21 200.976 159.424 212.079 159.424 212.079ZM160.651 224.131C160.651 224.131 134.376 222.022 126.946 208.658C118.953 194.28 133.248 190.582 146.807 204.395C156.099 213.85 160.651 224.131 160.651 224.131Z" fill="#A54657"/>
<path d="M168.873 144.722C163.749 160.619 159.864 176.953 158.618 193.617C157.397 210.021 158.812 226.474 162.048 242.57C162.889 246.793 163.864 250.999 164.923 255.163L166.52 254.338C163.733 243.251 161.586 231.992 160.572 220.59C159.15 204.74 160.088 188.782 163.157 173.17C165.021 163.72 167.584 154.421 170.536 145.256C170.882 144.178 169.213 143.664 168.873 144.722Z" fill="#173637"/>
<path d="M401.802 207.258C401.802 207.258 397.693 191.528 404.037 184.421C410.85 176.777 415.942 184.32 410.582 195.086C406.907 202.476 401.802 207.258 401.802 207.258ZM399.159 224.684C399.159 224.684 384.956 216.684 384.285 207.218C383.556 197.049 392.551 198.66 396.557 209.968C399.291 217.723 399.159 224.684 399.159 224.684ZM399.182 235.021C399.182 235.021 414.585 229.523 416.923 220.318C419.44 210.419 410.288 210.499 404.352 220.961C400.29 228.136 399.182 235.021 399.182 235.021ZM399.943 242.493C399.943 242.493 383.651 241.185 379.044 232.899C374.089 223.984 382.952 221.691 391.359 230.256C397.12 236.119 399.943 242.493 399.943 242.493Z" fill="#A54657"/>
<path d="M405.041 193.256C401.864 203.113 399.455 213.241 398.682 223.574C397.925 233.745 398.803 243.946 400.809 253.926C401.331 256.545 401.935 259.153 402.591 261.735L403.581 261.223C401.854 254.348 400.523 247.368 399.893 240.298C399.012 230.47 399.593 220.575 401.497 210.895C402.652 205.036 404.241 199.27 406.072 193.588C406.287 192.919 405.252 192.6 405.041 193.256Z" fill="#173637"/>
<path d="M439.388 222.631C439.388 222.631 435.279 206.901 441.623 199.794C448.436 192.15 453.528 199.693 448.169 210.459C444.493 217.849 439.388 222.631 439.388 222.631ZM436.745 240.056C436.745 240.056 422.543 232.057 421.871 222.591C421.143 212.422 430.137 214.032 434.144 225.341C436.878 233.095 436.745 240.056 436.745 240.056ZM436.768 250.393C436.768 250.393 452.172 244.896 454.51 235.691C457.027 225.792 447.874 225.872 441.938 236.334C437.876 243.508 436.768 250.393 436.768 250.393ZM437.529 257.866C437.529 257.866 421.238 256.558 416.63 248.272C411.675 239.357 420.538 237.064 428.945 245.629C434.707 251.492 437.529 257.866 437.529 257.866Z" fill="#A54657"/>
<path d="M442.627 208.629C439.451 218.486 437.041 228.614 436.269 238.946C435.511 249.117 436.389 259.319 438.395 269.299C438.921 271.917 439.516 274.521 440.178 277.108L441.168 276.596C439.44 269.722 438.109 262.741 437.48 255.671C436.598 245.843 437.18 235.949 439.083 226.268C440.239 220.409 441.828 214.643 443.659 208.961C443.873 208.292 442.838 207.973 442.627 208.629Z" fill="#173637"/>
<path d="M366.463 166.158C366.463 166.158 361.034 145.377 369.415 135.989C378.416 125.889 385.143 135.855 378.063 150.077C373.207 159.841 366.463 166.158 366.463 166.158ZM362.971 189.178C362.971 189.178 344.208 178.611 343.321 166.106C342.359 152.671 354.241 154.798 359.534 169.738C363.147 179.983 362.971 189.178 362.971 189.178ZM363.001 202.835C363.001 202.835 383.351 195.572 386.439 183.412C389.765 170.335 377.673 170.44 369.831 184.261C364.465 193.74 363.001 202.835 363.001 202.835ZM364.006 212.707C364.006 212.707 342.484 210.979 336.398 200.033C329.851 188.255 341.56 185.226 352.667 196.541C360.277 204.286 364.006 212.707 364.006 212.707Z" fill="#A54657"/>
<path d="M370.742 147.66C366.545 160.682 363.362 174.062 362.342 187.712C361.341 201.149 362.501 214.627 365.151 227.811C365.84 231.27 366.639 234.716 367.507 238.127L368.814 237.451C366.532 228.369 364.773 219.147 363.942 209.806C362.777 196.823 363.545 183.751 366.06 170.962C367.587 163.222 369.686 155.605 372.104 148.098C372.388 147.214 371.021 146.793 370.742 147.66Z" fill="#173637"/>
<path d="M73.9378 204.224C73.9378 204.224 62.4581 186.059 67.5966 174.579C73.1107 162.233 82.5454 169.698 80.1134 185.393C78.449 196.165 73.9378 204.224 73.9378 204.224ZM77.5959 227.219C77.5959 227.219 56.5068 222.818 51.8665 211.168C46.8729 198.655 58.8425 197.091 68.4204 209.73C74.9722 218.402 77.5959 227.219 77.5959 227.219ZM81.769 240.225C81.769 240.225 98.9593 227.153 98.2124 214.63C97.4126 201.162 85.921 204.917 82.6418 220.459C80.4036 231.114 81.769 240.225 81.769 240.225ZM85.7223 249.329C85.7223 249.329 64.686 254.187 55.5638 245.594C45.7502 236.348 55.9901 229.922 70.009 237.349C79.613 242.43 85.7223 249.329 85.7223 249.329Z" fill="#0F8B8D"/>
<path d="M72.403 185.301C72.3545 198.98 73.3814 212.694 76.5511 226.011C79.6751 239.119 84.8697 251.614 91.3965 263.378C93.1033 266.466 94.9098 269.51 96.7718 272.498L97.8128 271.459C92.8817 263.493 88.4069 255.235 84.7809 246.585C79.7307 234.563 76.4961 221.873 75.012 208.925C74.118 201.087 73.8077 193.193 73.8343 185.307C73.836 184.379 72.4052 184.391 72.403 185.301Z" fill="#173637"/>
<path d="M171.651 265.49C171.791 265.065 172.086 264.724 172.311 264.348C173.975 261.515 175.401 258.572 176.493 255.468C177.158 253.581 177.814 251.69 178.258 249.737C178.65 248.02 178.989 246.295 179.165 244.539C179.258 243.629 179.346 242.722 179.376 241.807C179.394 241.317 179.478 240.827 179.439 240.336C179.363 239.443 179.39 238.541 179.152 237.666C179.108 237.503 179.064 237.337 178.998 237.184C178.624 236.286 177.783 236.107 177.07 236.759C176.727 237.074 176.48 237.46 176.251 237.858C175.19 239.701 174.309 241.632 173.53 243.607C172.333 246.637 171.254 249.71 170.25 252.806C170.07 253.366 169.894 253.931 169.639 254.487C169.639 254.185 169.594 253.874 169.648 253.581C169.731 253.156 169.705 252.736 169.731 252.315C169.894 249.706 169.872 247.092 169.806 244.478C169.78 243.436 169.683 242.386 169.56 241.343C169.476 240.638 169.414 239.929 169.317 239.228C169.031 237.201 168.749 235.17 167.988 233.248C167.838 232.867 167.64 232.508 167.35 232.214C166.764 231.614 166.038 231.658 165.505 232.315C164.99 232.95 164.739 233.712 164.519 234.478C164.246 235.441 164.105 236.426 163.977 237.42C163.762 239.102 163.713 240.791 163.652 242.486C163.612 243.637 163.568 244.794 163.603 245.945C163.643 247.232 163.638 248.524 163.709 249.811C163.779 251.098 163.823 252.381 163.889 253.668C163.889 253.704 163.88 253.734 163.867 253.813C163.691 253.528 163.669 253.235 163.603 252.964C162.789 249.544 161.745 246.194 160.367 242.959C159.513 240.958 158.567 239.001 157.259 237.241C156.731 236.527 156.168 235.844 155.388 235.388C154.974 235.148 154.539 234.959 154.033 235.091C153.504 235.227 153.196 235.586 153.011 236.071C152.747 236.768 152.681 237.494 152.743 238.221C152.84 239.368 152.998 240.507 153.222 241.637C153.632 243.703 154.239 245.713 154.983 247.683C156.357 251.33 157.933 254.903 159.443 258.502C159.509 258.656 159.615 258.8 159.579 258.984C159.632 258.992 159.659 259.023 159.659 259.071C159.659 259.085 159.628 259.098 159.61 259.111C159.597 259.067 159.588 259.028 159.575 258.984C159.284 258.783 159.148 258.458 158.959 258.187C157.924 256.712 156.859 255.263 155.688 253.892C154.548 252.561 153.363 251.269 151.853 250.332C151.316 249.999 150.766 249.693 150.101 249.697C149.349 249.701 148.838 250.039 148.6 250.761C148.446 251.23 148.406 251.703 148.463 252.206C148.657 253.87 149.353 255.328 150.238 256.707C151.47 258.625 152.897 260.394 154.425 262.088C155.956 263.787 157.691 265.258 159.482 266.668C161.072 267.921 162.635 269.208 164.206 270.477C164.627 270.823 165.063 271.148 165.514 271.454C165.967 271.76 166.451 271.835 166.971 271.69C169.04 271.103 171.074 270.442 172.98 269.427C174.473 268.63 175.859 267.684 177.167 266.611C178.421 265.586 179.627 264.514 180.733 263.332C181.706 262.285 182.621 261.191 183.286 259.917C183.497 259.514 183.594 259.094 183.55 258.643C183.506 258.187 183.158 257.802 182.7 257.758C182.313 257.723 181.921 257.727 181.538 257.85C180.512 258.179 179.65 258.787 178.831 259.453C177.012 260.937 175.208 262.434 173.482 264.024C172.971 264.496 172.439 264.947 171.915 265.407C171.848 265.464 171.783 265.516 171.694 265.526C171.673 265.604 171.642 265.67 171.554 265.696C171.551 265.709 171.545 265.721 171.536 265.731C171.532 265.735 171.518 265.735 171.51 265.735C171.527 265.722 171.545 265.714 171.563 265.7C171.54 265.617 171.571 265.547 171.651 265.49ZM99.0066 274.799C99.103 274.505 99.3044 274.268 99.458 274.008C100.597 272.047 101.573 270.01 102.32 267.86C102.775 266.554 103.223 265.245 103.528 263.892C103.796 262.704 104.028 261.51 104.148 260.294C104.212 259.664 104.271 259.037 104.293 258.403C104.305 258.063 104.362 257.724 104.335 257.384C104.283 256.766 104.302 256.142 104.139 255.535C104.109 255.423 104.079 255.308 104.033 255.202C103.778 254.581 103.202 254.456 102.714 254.908C102.48 255.126 102.311 255.393 102.154 255.669C101.428 256.945 100.826 258.282 100.293 259.649C99.4732 261.746 98.7355 263.874 98.0484 266.017C97.9248 266.405 97.8045 266.796 97.6297 267.181C97.6297 266.972 97.5998 266.757 97.6357 266.554C97.6929 266.26 97.6749 265.969 97.6929 265.678C97.8045 263.871 97.7898 262.062 97.7446 260.252C97.7212 259.526 97.6648 258.802 97.5758 258.082C97.5187 257.593 97.4762 257.103 97.4098 256.618C97.2143 255.214 97.0216 253.807 96.5006 252.477C96.3982 252.213 96.2626 251.964 96.0634 251.761C95.6632 251.346 95.1661 251.377 94.8013 251.831C94.4491 252.271 94.2776 252.798 94.1268 253.329C93.94 253.995 93.8437 254.677 93.7566 255.366C93.6085 256.53 93.5758 257.7 93.5333 258.873C93.5061 259.67 93.4762 260.47 93.5001 261.267C93.5273 262.158 93.5246 263.053 93.5725 263.944C93.621 264.835 93.6509 265.723 93.6961 266.614C93.6961 266.639 93.6901 266.66 93.6809 266.714C93.5606 266.518 93.5453 266.314 93.5001 266.126C92.9432 263.759 92.2294 261.44 91.2864 259.2C90.7022 257.815 90.0543 256.46 89.1598 255.241C88.7983 254.747 88.4128 254.274 87.8798 253.959C87.5967 253.792 87.2984 253.662 86.9521 253.753C86.5906 253.847 86.3799 254.095 86.253 254.432C86.0723 254.914 86.0271 255.417 86.0696 255.92C86.1351 256.714 86.2447 257.503 86.3979 258.285C86.6777 259.716 87.0936 261.107 87.6027 262.471C88.5424 264.996 89.621 267.469 90.6538 269.961C90.699 270.067 90.7714 270.167 90.7474 270.294C90.7833 270.3 90.8013 270.322 90.8013 270.355C90.8013 270.364 90.7806 270.373 90.7681 270.382C90.7594 270.352 90.7534 270.325 90.7442 270.294C90.5454 270.155 90.4518 269.931 90.3228 269.743C89.6144 268.721 88.886 267.718 88.0845 266.769C87.3043 265.848 86.4942 264.953 85.4609 264.305C85.0934 264.074 84.7171 263.862 84.262 263.865C83.7469 263.868 83.3974 264.101 83.2352 264.602C83.1314 264.925 83.0994 265.266 83.1415 265.602C83.2744 266.754 83.7502 267.764 84.3556 268.718C85.199 270.046 86.1746 271.27 87.22 272.444C88.268 273.62 89.4549 274.638 90.681 275.614C91.7683 276.481 92.8375 277.372 93.9128 278.251C94.2019 278.488 94.4975 278.718 94.8073 278.927C94.9497 279.029 95.1138 279.097 95.2869 279.126C95.4599 279.154 95.6371 279.142 95.8048 279.091C97.2203 278.685 98.6119 278.227 99.9159 277.524C100.933 276.97 101.893 276.317 102.781 275.575C103.639 274.865 104.464 274.123 105.22 273.304C105.886 272.58 106.512 271.822 106.968 270.94C107.113 270.67 107.176 270.363 107.148 270.058C107.118 269.743 106.88 269.476 106.567 269.446C106.302 269.421 106.034 269.424 105.771 269.509C105.07 269.737 104.479 270.158 103.919 270.619C102.675 271.646 101.44 272.683 100.259 273.783C99.9099 274.111 99.5456 274.423 99.1874 274.741C99.1422 274.781 99.097 274.817 99.0366 274.823C99.0213 274.877 99.0007 274.923 98.9402 274.941C98.937 274.95 98.9342 274.959 98.9282 274.965C98.925 274.969 98.9163 274.969 98.9103 274.969C98.9222 274.959 98.9342 274.953 98.9462 274.944C98.931 274.887 98.9522 274.838 99.0066 274.799ZM407.092 269.265C407.188 268.97 407.39 268.734 407.544 268.473C408.682 266.512 409.658 264.475 410.405 262.326C410.86 261.02 411.309 259.71 411.613 258.358C411.881 257.17 412.113 255.975 412.234 254.76C412.297 254.13 412.357 253.502 412.379 252.869C412.39 252.529 412.448 252.189 412.42 251.85C412.369 251.232 412.387 250.607 412.224 250.001C412.194 249.889 412.165 249.774 412.119 249.668C411.863 249.046 411.288 248.922 410.8 249.374C410.565 249.592 410.396 249.859 410.24 250.135C409.514 251.411 408.911 252.747 408.378 254.114C407.559 256.212 406.821 258.34 406.134 260.483C406.011 260.871 405.89 261.262 405.716 261.647C405.716 261.438 405.686 261.223 405.722 261.02C405.779 260.726 405.761 260.434 405.779 260.144C405.89 258.337 405.875 256.527 405.83 254.718C405.812 253.996 405.746 253.269 405.661 252.547C405.604 252.06 405.562 251.568 405.496 251.083C405.3 249.68 405.107 248.273 404.586 246.942C404.484 246.679 404.348 246.43 404.149 246.227C403.749 245.812 403.251 245.842 402.887 246.297C402.535 246.737 402.363 247.264 402.213 247.794C402.026 248.461 401.93 249.143 401.842 249.831C401.694 250.995 401.661 252.166 401.619 253.339C401.592 254.136 401.562 254.936 401.586 255.733C401.613 256.624 401.61 257.518 401.658 258.409C401.706 259.301 401.737 260.189 401.782 261.08C401.782 261.104 401.775 261.126 401.767 261.181C401.646 260.983 401.631 260.78 401.586 260.592C401.028 258.225 400.315 255.906 399.372 253.666C398.788 252.281 398.14 250.926 397.246 249.707C396.884 249.213 396.499 248.74 395.965 248.425C395.682 248.258 395.384 248.128 395.037 248.219C394.676 248.313 394.465 248.561 394.339 248.898C394.158 249.38 394.113 249.883 394.155 250.386C394.221 251.18 394.33 251.968 394.483 252.751C394.764 254.181 395.179 255.572 395.688 256.937C396.628 259.461 397.706 261.935 398.74 264.427C398.785 264.533 398.857 264.633 398.833 264.76C398.869 264.766 398.887 264.787 398.887 264.821C398.887 264.83 398.866 264.839 398.854 264.848C398.845 264.818 398.839 264.79 398.83 264.76C398.631 264.621 398.538 264.396 398.408 264.208C397.7 263.187 396.971 262.183 396.17 261.235C395.39 260.313 394.58 259.419 393.547 258.77C393.179 258.54 392.802 258.328 392.348 258.331C391.833 258.334 391.483 258.567 391.32 259.067C391.217 259.39 391.185 259.732 391.227 260.068C391.36 261.22 391.836 262.229 392.441 263.184C393.284 264.512 394.26 265.736 395.306 266.909C396.354 268.085 397.541 269.104 398.767 270.08C399.854 270.947 400.923 271.838 401.999 272.717C402.286 272.956 402.585 273.182 402.893 273.393C403.204 273.605 403.535 273.657 403.89 273.557C405.306 273.151 406.697 272.693 408.002 271.99C409.019 271.436 409.978 270.783 410.866 270.041C411.725 269.331 412.55 268.588 413.306 267.77C413.972 267.046 414.598 266.288 415.053 265.406C415.199 265.136 415.262 264.829 415.234 264.524C415.204 264.208 414.966 263.942 414.653 263.911C414.388 263.887 414.119 263.89 413.857 263.975C413.155 264.203 412.565 264.624 412.005 265.084C410.761 266.112 409.526 267.148 408.345 268.249C407.996 268.576 407.632 268.889 407.273 269.207C407.228 269.246 407.182 269.283 407.122 269.289C407.107 269.344 407.086 269.389 407.026 269.407C407.023 269.416 407.019 269.424 407.014 269.431C407.011 269.434 407.002 269.434 406.996 269.434C407.008 269.425 407.02 269.419 407.032 269.41C407.017 269.352 407.038 269.304 407.092 269.265Z" fill="#0F8B8D"/>
</g>
<defs>
<linearGradient id="paint0_linear_426:431" x1="257.398" y1="370.696" x2="250.71" y2="-204.909" gradientUnits="userSpaceOnUse">
<stop stop-color="white"/>
<stop offset="1" stop-color="#EEEEEE"/>
</linearGradient>
<clipPath id="clip0_426:431">
<rect width="490" height="326" fill="white"/>
</clipPath>
</defs>
</svg>
