<svg width="291" height="194" viewBox="0 0 291 194" fill="none" xmlns="http://www.w3.org/2000/svg">
<path d="M62.8819 143.464C63.7029 149.124 59.7741 154.378 54.0979 155.203C48.4257 156.028 43.1602 152.107 42.3354 146.446C41.5145 140.79 45.4472 135.532 51.1191 134.707C56.7952 133.882 62.061 137.803 62.8819 143.464Z" fill="url(#paint0_linear_426_300)"/>
<path d="M60.4389 143.819C61.0645 148.131 58.0702 152.138 53.7465 152.767C49.4229 153.393 45.4081 150.406 44.7828 146.094C44.1574 141.779 47.1518 137.772 51.4751 137.146C55.7987 136.517 59.8097 139.503 60.4389 143.819Z" fill="white"/>
<path d="M54.1474 149.445L54.3747 150.818L53.1121 151.016L52.8928 149.678C51.6299 149.8 50.3712 149.607 49.5916 149.184L50.0381 147.582C50.7446 147.937 51.7072 148.126 52.6287 148.071L52.2918 146.022C50.8381 145.908 49.1978 145.699 48.9094 143.946C48.6944 142.647 49.482 141.38 51.4391 140.847L51.2157 139.486L52.4787 139.288L52.6979 140.626C53.6562 140.551 54.6185 140.654 55.3819 140.974L55 142.58C54.2977 142.324 53.6074 142.217 52.9659 142.241L53.3109 144.325C54.7646 144.424 56.3764 144.641 56.6606 146.37C56.8679 147.649 56.0922 148.904 54.1474 149.445ZM51.9953 144.219L51.7072 142.478C51.0615 142.73 50.8584 143.125 50.9234 143.532C50.9965 143.958 51.4107 144.135 51.9953 144.219ZM54.6508 146.839C54.5819 146.409 54.1758 146.235 53.6032 146.133L53.8835 147.826C54.4924 147.593 54.7158 147.23 54.6508 146.839Z" fill="#E1E4E5"/>
<path d="M109.927 137.183C110.841 143.485 106.467 149.334 100.148 150.252C93.8326 151.171 87.9706 146.806 87.0523 140.504C86.1382 134.206 90.5165 128.353 96.8312 127.435C103.15 126.516 109.013 130.881 109.927 137.183Z" fill="url(#paint1_linear_426_300)"/>
<path d="M107.206 137.579C107.902 142.379 104.569 146.84 99.7554 147.541C94.9419 148.237 90.4724 144.912 89.776 140.112C89.0799 135.308 92.4134 130.846 97.2269 130.15C102.04 129.45 106.505 132.775 107.206 137.579Z" fill="white"/>
<path d="M100.203 143.842L100.456 145.371L99.05 145.591L98.8059 144.101C97.4 144.238 95.9987 144.022 95.1309 143.552L95.6281 141.768C96.4145 142.163 97.486 142.374 98.512 142.313L98.1369 140.032C96.5186 139.905 94.6924 139.672 94.3713 137.721C94.1318 136.275 95.0086 134.864 97.1876 134.271L96.9389 132.755L98.3448 132.535L98.5889 134.025C99.6556 133.941 100.727 134.056 101.577 134.412L101.152 136.2C100.37 135.914 99.6016 135.796 98.8873 135.822L99.2715 138.142C100.89 138.252 102.685 138.494 103.001 140.419C103.231 141.843 102.368 143.24 100.203 143.842ZM97.8068 138.024L97.486 136.086C96.7672 136.367 96.5412 136.806 96.6133 137.259C96.6948 137.734 97.1559 137.931 97.8068 138.024ZM100.763 140.942C100.686 140.463 100.234 140.269 99.5971 140.155L99.9088 142.04C100.587 141.781 100.835 141.377 100.763 140.942Z" fill="#E1E4E5"/>
<path d="M104.973 49.674C105.887 55.9757 101.513 61.8248 95.1939 62.7431C88.8792 63.6614 83.0169 59.2964 82.0986 52.9946C81.1849 46.6974 85.5628 40.8437 91.8775 39.9255C98.1967 39.0072 104.059 43.3722 104.973 49.674Z" fill="url(#paint2_linear_426_300)"/>
<path d="M102.253 50.0702C102.95 54.8704 99.6159 59.3315 94.8025 60.0321C89.989 60.7283 85.5196 57.4034 84.8234 52.6032C84.127 47.7985 87.4605 43.3374 92.274 42.6413C97.0875 41.9406 101.552 45.2655 102.253 50.0702Z" fill="white"/>
<path d="M95.2495 56.3331L95.5027 57.8625L94.0969 58.0823L93.8527 56.5924C92.4469 56.7285 91.0456 56.5132 90.1777 56.0431L90.675 54.2589C91.4614 54.6543 92.5329 54.8655 93.5592 54.8037L93.1838 52.5233C91.5655 52.3955 89.7393 52.1627 89.4182 50.2117C89.1786 48.7658 90.0555 47.3551 92.2345 46.7618L91.9858 45.2457L93.3917 45.0261L93.6358 46.5157C94.7028 46.4323 95.774 46.5464 96.6237 46.9024L96.1989 48.6911C95.417 48.4056 94.6485 48.2869 93.9342 48.3131L94.3183 50.6334C95.9366 50.7433 97.7315 50.9852 98.0477 52.91C98.2782 54.3336 97.4149 55.731 95.2495 56.3331ZM92.854 50.5147L92.5329 48.577C91.8141 48.858 91.5881 49.2977 91.6605 49.75C91.7417 50.2247 92.2028 50.4226 92.854 50.5147ZM95.8102 53.4328C95.7333 52.9539 95.2812 52.7606 94.6439 52.6461L94.956 54.5315C95.634 54.2722 95.8826 53.868 95.8102 53.4328Z" fill="#E1E4E5"/>
<path d="M251.418 118.248C253.262 130.965 244.436 142.767 231.685 144.62C218.943 146.473 207.114 137.665 205.261 124.949C203.416 112.242 212.251 100.43 224.993 98.5775C237.744 96.7245 249.573 105.532 251.418 118.248Z" fill="url(#paint3_linear_426_300)"/>
<path d="M245.929 119.048C247.334 128.734 240.607 137.735 230.894 139.149C221.182 140.554 212.163 133.845 210.758 124.159C209.353 114.464 216.08 105.462 225.792 104.057C235.505 102.643 244.515 109.353 245.929 119.048Z" fill="white"/>
<path d="M231.797 131.686L232.308 134.772L229.471 135.215L228.979 132.209C226.142 132.484 223.314 132.049 221.563 131.1L222.566 127.5C224.153 128.298 226.315 128.724 228.386 128.6L227.629 123.998C224.363 123.74 220.678 123.271 220.03 119.333C219.547 116.416 221.317 113.57 225.713 112.372L225.212 109.313L228.048 108.87L228.541 111.876C230.694 111.707 232.855 111.938 234.57 112.656L233.713 116.265C232.135 115.689 230.584 115.449 229.143 115.502L229.918 120.185C233.184 120.406 236.805 120.894 237.444 124.778C237.909 127.651 236.166 130.471 231.797 131.686ZM226.963 119.945L226.315 116.035C224.865 116.602 224.409 117.489 224.555 118.402C224.719 119.36 225.649 119.759 226.963 119.945ZM232.928 125.833C232.773 124.867 231.861 124.477 230.575 124.246L231.205 128.05C232.573 127.527 233.074 126.711 232.928 125.833Z" fill="#E1E4E5"/>
<path d="M235.594 51.3612C237.438 64.0773 228.613 75.8799 215.862 77.7329C203.119 79.586 191.29 70.7777 189.437 58.0617C187.593 45.3547 196.428 33.543 209.17 31.69C221.921 29.8373 233.75 38.6452 235.594 51.3612Z" fill="url(#paint4_linear_426_300)"/>
<path d="M230.105 52.1605C231.511 61.8466 224.784 70.8479 215.071 72.2618C205.359 73.667 196.339 66.9575 194.935 57.2714C193.529 47.5763 200.256 38.575 209.969 37.1698C219.682 35.7559 228.692 42.4654 230.105 52.1605Z" fill="white"/>
<path d="M215.974 64.7984L216.485 67.8843L213.648 68.3276L213.155 65.3216C210.319 65.5964 207.491 65.1619 205.74 64.2132L206.743 60.6129C208.33 61.4112 210.492 61.8367 212.563 61.7126L211.806 57.1102C208.54 56.8532 204.855 56.383 204.207 52.4461C203.724 49.5287 205.493 46.6821 209.89 45.4851L209.388 42.4257L212.225 41.9824L212.718 44.9885C214.87 44.82 217.032 45.0505 218.747 45.7687L217.89 49.3777C216.312 48.8015 214.761 48.5619 213.32 48.6153L214.095 53.2972C217.361 53.519 220.982 54.0065 221.62 57.8907C222.086 60.7636 220.343 63.5837 215.974 64.7984ZM211.14 53.0579L210.492 49.1472C209.042 49.7149 208.586 50.6015 208.732 51.5149C208.896 52.4727 209.826 52.8716 211.14 53.0579ZM217.105 58.9458C216.95 57.9793 216.038 57.5891 214.752 57.3585L215.381 61.1629C216.75 60.6397 217.251 59.8236 217.105 58.9458Z" fill="#E1E4E5"/>
<path d="M102.373 95.2202C104.218 107.936 95.392 119.739 82.6407 121.592C69.8984 123.445 58.0693 114.637 56.2166 101.921C54.3723 89.2133 63.2067 77.4019 75.949 75.5489C88.7003 73.6959 100.529 82.5041 102.373 95.2202Z" fill="url(#paint5_linear_426_300)"/>
<path d="M96.8851 96.0189C98.2899 105.705 91.5633 114.706 81.8504 116.12C72.1378 117.525 63.119 110.816 61.7138 101.13C60.3089 91.4347 67.0356 82.4334 76.7482 81.0282C86.4611 79.6143 95.4711 86.3238 96.8851 96.0189Z" fill="white"/>
<path d="M82.7528 108.657L83.2636 111.743L80.4267 112.186L79.9343 109.18C77.0973 109.455 74.2698 109.021 72.5183 108.072L73.5219 104.472C75.1088 105.27 77.2707 105.695 79.3413 105.571L78.5844 100.969C75.3187 100.712 71.6337 100.242 70.986 96.3045C70.5026 93.3871 72.2722 90.5408 76.6686 89.3435L76.1671 86.2844L79.004 85.8408L79.4965 88.8468C81.6492 88.6784 83.811 88.9089 85.5257 89.6274L84.6685 93.2364C83.0903 92.6599 81.5396 92.4207 80.0985 92.4737L80.8739 97.1559C84.1392 97.3777 87.7606 97.8653 88.3991 101.749C88.8644 104.622 87.122 107.442 82.7528 108.657ZM77.9183 96.9163L77.2706 93.0059C75.8205 93.5733 75.3643 94.4602 75.5104 95.3733C75.6744 96.331 76.6049 96.7304 77.9183 96.9163ZM83.8838 102.805C83.7289 101.838 82.8168 101.448 81.5306 101.217L82.1601 105.021C83.5281 104.498 84.0299 103.682 83.8838 102.805Z" fill="#E1E4E5"/>
<path d="M166.354 51.4652C168.199 64.1813 159.373 75.9839 146.622 77.8369C133.879 79.69 122.05 70.8817 120.198 58.1657C118.353 45.4583 127.188 33.647 139.93 31.794C152.681 29.9413 164.51 38.7492 166.354 51.4652Z" fill="url(#paint6_linear_426_300)"/>
<path d="M160.866 52.2645C162.27 61.9506 155.544 70.9519 145.831 72.3658C136.118 73.771 127.099 67.0615 125.694 57.3754C124.289 47.6803 131.016 38.679 140.729 37.2738C150.441 35.8599 159.452 42.5694 160.866 52.2645Z" fill="white"/>
<path d="M146.734 64.9024L147.245 67.9883L144.408 68.4316L143.915 65.4256C141.079 65.7004 138.251 65.2659 136.5 64.3172L137.503 60.7169C139.09 61.5149 141.252 61.9407 143.323 61.8166L142.565 57.2142C139.3 56.9572 135.615 56.487 134.967 52.5498C134.484 49.6324 136.253 46.7861 140.65 45.5891L140.148 42.5297L142.985 42.0864L143.477 45.0925C145.63 44.924 147.792 45.1545 149.507 45.8727L148.649 49.4817C147.072 48.9055 145.521 48.6659 144.079 48.7193L144.855 53.4012C148.12 53.623 151.742 54.1105 152.38 57.9944C152.845 60.8676 151.103 63.6874 146.734 64.9024ZM141.9 53.1619L141.252 49.2512C139.801 49.8186 139.346 50.7055 139.491 51.6189C139.656 52.5767 140.586 52.9756 141.9 53.1619ZM147.865 59.0498C147.71 58.0833 146.798 57.6931 145.512 57.4625L146.141 61.2666C147.509 60.7434 148.011 59.9276 147.865 59.0498Z" fill="#E1E4E5"/>
<path fill-rule="evenodd" clip-rule="evenodd" d="M71.2861 165.224H156.337C156.895 165.224 157.351 165.685 157.351 166.249C157.351 166.813 156.895 167.275 156.337 167.275H152.914C152.604 167.275 152.351 167.532 152.351 167.845C152.351 168.158 152.604 168.414 152.914 168.414H154.166C154.553 168.414 154.871 168.735 154.871 169.127C154.871 169.518 154.553 169.839 154.166 169.839H73.5685C73.1815 169.839 72.8637 169.519 72.8637 169.127C72.8637 168.735 73.1815 168.414 73.5685 168.414H74.555C74.8648 168.414 75.1183 168.158 75.1183 167.845C75.1183 167.532 74.8648 167.275 74.555 167.275H71.2861C70.728 167.275 70.2715 166.813 70.2715 166.249C70.2715 165.685 70.728 165.224 71.2861 165.224ZM71.8144 169.839C72.1869 169.839 72.4915 169.531 72.4915 169.155V169.098C72.4915 168.722 72.1869 168.414 71.8144 168.414C71.4423 168.414 71.1377 168.722 71.1377 169.098V169.155C71.1377 169.531 71.4423 169.839 71.8144 169.839Z" fill="#E1E4E5"/>
<path fill-rule="evenodd" clip-rule="evenodd" d="M145.745 165.224H230.496C231.051 165.224 231.506 165.685 231.506 166.249C231.506 166.813 231.051 167.275 230.496 167.275H227.085C226.776 167.275 226.524 167.531 226.524 167.845C226.524 168.158 226.776 168.414 227.085 168.414H228.333C228.718 168.414 229.035 168.735 229.035 169.127C229.035 169.518 228.718 169.839 228.333 169.839H148.02C147.634 169.839 147.317 169.519 147.317 169.127C147.317 168.735 147.634 168.414 148.02 168.414H149.003C149.311 168.414 149.564 168.158 149.564 167.845C149.564 167.531 149.311 167.275 149.003 167.275H145.745C145.189 167.275 144.734 166.813 144.734 166.249C144.734 165.685 145.189 165.224 145.745 165.224ZM146.272 169.839C146.643 169.839 146.947 169.531 146.947 169.155V169.098C146.947 168.722 146.643 168.414 146.272 168.414C145.901 168.414 145.598 168.722 145.598 169.098V169.155C145.598 169.531 145.901 169.839 146.272 169.839Z" fill="#E1E4E5"/>
<path d="M148.488 121.761C148.488 121.761 154.988 114.073 148.889 109.193C148.889 109.193 144.435 106.458 140.803 106.68C140.803 106.68 145.949 115.428 144.283 116.3C142.618 117.169 139.243 106.132 139.243 106.132C139.243 106.132 129.108 105.136 125.846 106.725C125.846 106.725 134.512 113.914 132.687 114.342C130.862 114.771 121.503 107.713 121.503 107.713C121.503 107.713 112.069 109.342 112.572 115.174C113.076 121.009 116.325 122.809 117.755 122.655C119.185 122.5 127.541 119.265 127.723 120.453C127.905 121.641 122.874 125.519 119.352 125.7C119.352 125.7 126.003 133.136 130.422 130.989C134.844 128.843 135.219 125.441 137.976 124.167C140.731 122.891 143.082 122.894 141.945 124.194C140.808 125.496 135.821 126.759 134.244 129.585C132.67 132.412 131.255 134.317 135.829 133.619C140.402 132.922 147.835 129.528 148.162 125.643L148.488 121.761Z" fill="#0F8B8D"/>
<path d="M117.209 115.182C117.209 115.182 143.019 114.19 148.72 121.546C148.72 121.546 149.979 125.309 153.859 128.735L154.463 130.377C154.463 130.377 149.989 125.677 148.391 125.393C148.391 125.393 150.895 116.279 117.209 115.182Z" fill="#0F8B8D"/>
<path d="M153.767 128.917C153.767 128.917 159.167 133.055 159.543 140.448L158.564 140.537C158.564 140.537 156.839 132.893 153.721 129.904C150.602 126.915 153.767 128.917 153.767 128.917ZM170.527 112.321C170.527 112.321 157.471 107.854 161.339 97.8322C161.339 97.8322 164.743 91.4884 169.219 89.1963C169.219 89.1963 169.159 103.097 171.743 102.949C174.328 102.801 170.694 87.4551 170.694 87.4551C170.694 87.4551 182.062 79.1606 187.043 78.7355C187.043 78.7355 181.715 93.2741 184.183 92.4949C186.651 91.7157 192.895 76.843 192.895 76.843C192.895 76.843 205.246 72.1272 208.692 79.3365C212.135 86.5462 209.518 90.949 207.712 91.7726C205.905 92.5932 193.721 94.6664 194.326 96.189C194.931 97.7116 203.604 98.7346 207.92 96.4719C207.92 96.4719 205.16 109.887 198.417 110.473C191.67 111.056 188.865 107.325 184.703 107.76C180.54 108.198 177.745 109.855 179.998 110.583C182.252 111.314 189.061 109.295 192.895 111.506C196.727 113.721 199.73 114.966 193.807 117.361C187.884 119.755 176.689 120.992 173.608 116.657L170.527 112.321Z" fill="#0F8B8D"/>
<path d="M203.287 82.78C203.287 82.78 172.111 99.6137 170.527 112.321C170.527 112.321 171.67 117.667 169.488 124.439L169.923 126.811C169.923 126.811 171.918 118.111 173.608 116.656C173.608 116.659 164.272 107.587 203.287 82.78Z" fill="#0F8B8D"/>
<path d="M169.488 124.442C169.488 124.442 165.804 133.155 170.455 142.082L171.707 141.488C171.707 141.488 168.517 131.3 170.23 125.566C171.939 119.831 169.488 124.442 169.488 124.442ZM154.615 98.2881C154.615 98.2881 170.482 89.3893 163.078 77.3144C163.078 77.3144 157.154 69.8994 150.808 67.9921C150.808 67.9921 154.191 85.9982 150.808 86.4221C147.422 86.846 148.48 66.0844 148.48 66.0844C148.48 66.0844 131.766 58.0337 125.208 58.6694C125.208 58.6694 135.573 76.252 132.189 75.8281C128.803 75.4042 117.168 57.6099 117.168 57.6099C117.168 57.6099 100.031 54.4334 97.2827 64.601C94.5312 74.7682 98.9757 79.8549 101.513 80.4909C104.052 81.1265 120.34 80.9144 119.917 83.0339C119.493 85.1533 108.494 88.5415 102.359 86.6371C102.359 86.6371 109.129 103.372 118.015 102.527C126.901 101.679 129.65 96.1716 135.149 95.7477C140.649 95.3238 144.67 96.8072 141.919 98.2907C139.168 99.7745 129.861 98.7776 125.417 102.558C120.975 106.342 117.377 108.67 125.628 110.366C133.88 112.061 148.689 111.002 151.649 104.646L154.615 98.2881Z" fill="#0F8B8D"/>
<path d="M105.11 67.7825C105.11 67.7825 149.535 82.1889 154.612 98.2877C154.612 98.2877 154.4 105.491 158.842 113.754V116.933C158.842 116.933 154.188 106.129 151.649 104.646C151.652 104.643 161.596 90.6606 105.11 67.7825Z" fill="#0F8B8D"/>
<path d="M158.844 113.754C158.844 113.754 165.697 124.173 161.79 136.855L160.029 136.38C160.029 136.38 161.739 122.412 158.155 115.386C154.569 108.36 158.844 113.754 158.844 113.754Z" fill="#0F8B8D"/>
<path d="M124.424 133.948C124.805 150.41 138.249 163.634 154.776 163.634C171.301 163.634 184.744 150.41 185.126 133.948H124.424Z" fill="white" stroke="#E1E4E5" stroke-width="4.449"/>
<path d="M123.386 165.938H186.317C186.317 162.962 184.604 160.544 182.487 160.544H127.21C125.099 160.544 123.386 162.957 123.386 165.938Z" fill="white" stroke="#E1E4E5" stroke-width="4.449"/>
<path d="M123.136 133.34H187.06V138.843H123.136V133.34Z" fill="#E1E4E5"/>
<path fill-rule="evenodd" clip-rule="evenodd" d="M196.298 152.431H197.197C197.415 152.431 197.59 152.608 197.59 152.824V153.723C197.59 153.94 197.413 154.116 197.197 154.116H196.298C196.194 154.115 196.094 154.074 196.021 154C195.947 153.927 195.906 153.827 195.905 153.723V152.824C195.905 152.772 195.915 152.721 195.935 152.673C195.955 152.625 195.983 152.582 196.02 152.546C196.056 152.509 196.1 152.48 196.147 152.46C196.195 152.441 196.246 152.431 196.298 152.431ZM199.417 152.431H200.316C200.42 152.431 200.52 152.473 200.593 152.546C200.667 152.62 200.708 152.72 200.709 152.824V153.723C200.709 153.94 200.532 154.116 200.316 154.116H199.417C199.313 154.115 199.213 154.074 199.139 154C199.066 153.927 199.024 153.827 199.024 153.723V152.824C199.024 152.719 199.066 152.62 199.139 152.546C199.213 152.473 199.313 152.431 199.417 152.431ZM202.537 152.431H203.437C203.541 152.431 203.641 152.473 203.714 152.546C203.788 152.62 203.829 152.72 203.83 152.824V153.723C203.83 153.94 203.653 154.116 203.437 154.116H202.537C202.433 154.115 202.334 154.074 202.26 154C202.186 153.927 202.145 153.827 202.145 153.723V152.824C202.145 152.772 202.155 152.721 202.174 152.673C202.194 152.625 202.223 152.582 202.259 152.546C202.296 152.509 202.339 152.48 202.387 152.46C202.434 152.441 202.486 152.431 202.537 152.431ZM205.656 152.431H206.556C206.66 152.431 206.759 152.473 206.833 152.546C206.907 152.62 206.948 152.72 206.948 152.824V153.723C206.948 153.94 206.772 154.116 206.556 154.116H205.656C205.552 154.116 205.452 154.074 205.378 154.001C205.304 153.927 205.262 153.827 205.262 153.723V152.824C205.263 152.719 205.305 152.62 205.379 152.546C205.453 152.473 205.552 152.431 205.656 152.431ZM208.775 152.431H209.675C209.892 152.431 210.069 152.608 210.069 152.824V153.723C210.069 153.94 209.892 154.116 209.675 154.116H208.775C208.671 154.115 208.572 154.074 208.498 154C208.425 153.927 208.383 153.827 208.383 153.723V152.824C208.383 152.72 208.425 152.62 208.498 152.546C208.572 152.473 208.671 152.431 208.775 152.431ZM199.531 155.832H200.431C200.535 155.832 200.634 155.874 200.708 155.947C200.781 156.021 200.823 156.12 200.823 156.224V157.126C200.823 157.341 200.646 157.518 200.431 157.518H199.531C199.427 157.518 199.327 157.477 199.253 157.403C199.18 157.33 199.138 157.23 199.138 157.126V156.226C199.138 156.174 199.148 156.123 199.168 156.075C199.187 156.027 199.216 155.984 199.253 155.947C199.289 155.91 199.333 155.881 199.38 155.861C199.428 155.842 199.479 155.831 199.531 155.832ZM202.65 155.832H203.55C203.654 155.832 203.753 155.874 203.827 155.947C203.9 156.021 203.942 156.12 203.942 156.224V157.126C203.942 157.341 203.765 157.518 203.55 157.518H202.65C202.546 157.518 202.446 157.476 202.373 157.403C202.299 157.329 202.258 157.23 202.257 157.126V156.226C202.257 156.174 202.267 156.123 202.287 156.075C202.306 156.027 202.335 155.984 202.372 155.947C202.408 155.91 202.451 155.881 202.499 155.861C202.547 155.842 202.598 155.831 202.65 155.832ZM205.769 155.832H206.668C206.886 155.832 207.063 156.009 207.063 156.224V157.126C207.062 157.23 207.021 157.33 206.947 157.403C206.873 157.477 206.773 157.518 206.668 157.518H205.769C205.665 157.518 205.565 157.476 205.492 157.403C205.418 157.329 205.377 157.23 205.376 157.126V156.226C205.376 156.009 205.553 155.832 205.769 155.832ZM202.537 148.777H203.437C203.653 148.777 203.83 148.954 203.83 149.17V150.069C203.83 150.287 203.653 150.462 203.437 150.462H202.537C202.433 150.462 202.334 150.42 202.26 150.347C202.186 150.273 202.145 150.173 202.145 150.069V149.17C202.145 149.118 202.155 149.067 202.174 149.02C202.194 148.972 202.223 148.929 202.259 148.892C202.296 148.856 202.339 148.827 202.387 148.807C202.434 148.787 202.486 148.777 202.537 148.777ZM205.656 148.777H206.556C206.772 148.777 206.948 148.954 206.948 149.17V150.069C206.948 150.287 206.772 150.462 206.556 150.462H205.656C205.552 150.462 205.452 150.421 205.378 150.347C205.304 150.274 205.262 150.174 205.262 150.069V149.17C205.263 149.066 205.305 148.966 205.379 148.893C205.453 148.82 205.552 148.778 205.656 148.777Z" fill="#E1E4E5"/>
<path d="M74.8007 131.775C75.4959 131.775 76.0595 132.419 76.0595 133.213C76.0595 134.008 75.4959 134.652 74.8007 134.652C74.1055 134.652 73.542 134.008 73.542 133.213C73.542 132.419 74.1055 131.775 74.8007 131.775Z" fill="#E1E4E5"/>
<path d="M220.982 87.5427C221.777 87.5427 222.421 88.2673 222.421 89.161C222.421 90.0548 221.777 90.7793 220.982 90.7793C220.188 90.7793 219.544 90.0548 219.544 89.161C219.544 88.2673 220.188 87.5427 220.982 87.5427Z" fill="#E1E4E5"/>
<path d="M177.867 60.5721C178.562 60.5721 179.125 61.1357 179.125 61.8309C179.125 62.526 178.562 63.0896 177.867 63.0896C177.171 63.0896 176.608 62.526 176.608 61.8309C176.608 61.1357 177.171 60.5721 177.867 60.5721Z" fill="#E1E4E5"/>
<path d="M54.3033 119.908C55.1971 119.908 55.9216 120.633 55.9216 121.526C55.9216 122.42 55.1971 123.145 54.3033 123.145C53.4096 123.145 52.6851 122.42 52.6851 121.526C52.6851 120.633 53.4096 119.908 54.3033 119.908Z" fill="#E1E4E5"/>
<path d="M111.661 66.3258C112.654 66.3258 113.459 65.6817 113.459 64.8872C113.459 64.0928 112.654 63.4487 111.661 63.4487C110.668 63.4487 109.863 64.0928 109.863 64.8872C109.863 65.6817 110.668 66.3258 111.661 66.3258Z" fill="#0F8B8D"/>
<path d="M75.1941 57.3357H75.1288C74.7418 62.2688 70.6655 62.3448 70.6655 62.3448C70.6655 62.3448 75.1605 62.4237 75.1605 68.124C75.1605 62.4237 79.6558 62.3448 79.6558 62.3448C79.6558 62.3448 75.5808 62.2688 75.1941 57.3357Z" fill="#E1E4E5"/>
<path d="M239.955 86.0711C243.961 83.8944 244.947 77.9609 244.947 77.9609C244.947 77.9609 239.436 75.5605 235.43 77.7407C231.424 79.9174 230.438 85.8473 230.438 85.8473C230.438 85.8473 235.948 88.2478 239.955 86.0711Z" fill="url(#paint7_linear_426_300)"/>
<path d="M172.941 42.8755C175.922 46.3255 181.929 46.0235 181.929 46.0235C181.929 46.0235 183.099 40.1272 180.115 36.6791C177.135 33.2292 171.131 33.5296 171.131 33.5296C171.131 33.5296 169.96 39.4255 172.941 42.8755Z" fill="url(#paint8_linear_426_300)"/>
<path d="M39.5258 109.277C42.5069 112.727 48.5138 112.425 48.5138 112.425C48.5138 112.425 49.6839 106.529 46.6999 103.081C43.7191 99.6308 37.7151 99.9312 37.7151 99.9312C37.7151 99.9312 36.545 105.827 39.5258 109.277Z" fill="url(#paint9_linear_426_300)"/>
<defs>
<linearGradient id="paint0_linear_426_300" x1="53.0513" y1="166.926" x2="52.414" y2="112.063" gradientUnits="userSpaceOnUse">
<stop stop-color="white"/>
<stop offset="1" stop-color="#EEEEEE"/>
</linearGradient>
<linearGradient id="paint1_linear_426_300" x1="98.9823" y1="163.304" x2="98.2729" y2="102.225" gradientUnits="userSpaceOnUse">
<stop stop-color="white"/>
<stop offset="1" stop-color="#EEEEEE"/>
</linearGradient>
<linearGradient id="paint2_linear_426_300" x1="94.0286" y1="75.7948" x2="93.3193" y2="14.7161" gradientUnits="userSpaceOnUse">
<stop stop-color="white"/>
<stop offset="1" stop-color="#EEEEEE"/>
</linearGradient>
<linearGradient id="paint3_linear_426_300" x1="229.334" y1="170.957" x2="227.902" y2="47.7087" gradientUnits="userSpaceOnUse">
<stop stop-color="white"/>
<stop offset="1" stop-color="#EEEEEE"/>
</linearGradient>
<linearGradient id="paint4_linear_426_300" x1="213.51" y1="104.069" x2="212.079" y2="-19.1784" gradientUnits="userSpaceOnUse">
<stop stop-color="white"/>
<stop offset="1" stop-color="#EEEEEE"/>
</linearGradient>
<linearGradient id="paint5_linear_426_300" x1="80.2897" y1="147.928" x2="78.858" y2="24.6802" gradientUnits="userSpaceOnUse">
<stop stop-color="white"/>
<stop offset="1" stop-color="#EEEEEE"/>
</linearGradient>
<linearGradient id="paint6_linear_426_300" x1="144.271" y1="104.173" x2="142.839" y2="-19.0745" gradientUnits="userSpaceOnUse">
<stop stop-color="white"/>
<stop offset="1" stop-color="#EEEEEE"/>
</linearGradient>
<linearGradient id="paint7_linear_426_300" x1="254.144" y1="76.8722" x2="212.971" y2="89.1127" gradientUnits="userSpaceOnUse">
<stop stop-color="white"/>
<stop offset="1" stop-color="#EEEEEE"/>
</linearGradient>
<linearGradient id="paint8_linear_426_300" x1="184.954" y1="54.7774" x2="164.216" y2="17.1608" gradientUnits="userSpaceOnUse">
<stop stop-color="white"/>
<stop offset="1" stop-color="#EEEEEE"/>
</linearGradient>
<linearGradient id="paint9_linear_426_300" x1="51.5386" y1="121.179" x2="30.8007" y2="83.5624" gradientUnits="userSpaceOnUse">
<stop stop-color="white"/>
<stop offset="1" stop-color="#EEEEEE"/>
</linearGradient>
</defs>
</svg>
