<svg width="232" height="174" viewBox="0 0 232 174" fill="none" xmlns="http://www.w3.org/2000/svg">
<g clip-path="url(#clip0_426_266)">
<path opacity="0.18" d="M207.261 132.935C205.763 139.202 203.606 145.406 199.794 150.603C193.994 158.508 184.926 163.333 175.835 167.035C168.34 170.083 160.464 172.577 152.369 172.711C141.376 172.894 130.71 168.732 119.713 168.445C106.706 168.109 94.1169 173.203 81.1417 173.937C67.4557 174.662 53.9511 170.554 42.9963 162.335C40.5375 160.481 38.2404 158.422 36.1297 156.18C31.5218 151.362 27.9529 145.652 25.6437 139.403C24.5163 136.24 23.6904 132.977 23.1769 129.659C22.3158 124.35 22.087 118.916 21.9973 113.517C21.7148 96.427 23.1545 78.1058 33.6943 64.6324C37.3945 59.9055 42.0545 56.0201 46.6651 52.175L72.1267 30.9622C78.787 25.4116 85.4787 19.8432 92.9015 15.358C101.109 10.4029 110.084 6.8532 119.081 3.53184C123.072 2.06363 127.127 0.617811 131.361 0.161235C140.636 -0.84144 149.776 3.01259 157.733 7.87378C165.196 12.4306 172.377 18.3437 175.449 26.5352C178.032 33.3928 177.427 41.0158 178.952 48.1912C182.132 63.1731 194.308 74.1086 201.879 86.9374C210.1 100.867 210.957 117.389 207.261 132.935Z" fill="#0F8B8D"/>
<path d="M90.6321 47.5421C90.1314 47.5882 89.6519 47.7656 89.2423 48.0565C88.8327 48.3474 88.5075 48.7414 88.2998 49.1983C87.8996 50.1259 87.8565 51.1684 88.1787 52.1258C88.3381 52.4863 88.4147 52.8778 88.403 53.2717C88.321 53.5993 88.1679 53.9049 87.9545 54.1669C87.1588 55.2445 86.7057 56.5357 86.6538 57.8732C86.6538 59.2161 87.4208 60.5814 88.6721 61.029C87.8737 62.7031 87.8513 64.8517 89.0219 66.293C90.1925 67.7344 92.6727 68.0522 93.9106 66.669C94.2467 67.2912 94.7654 67.7959 95.3971 68.1154C96.0288 68.4349 96.7434 68.5539 97.4448 68.4564C98.1462 68.359 98.8011 68.0498 99.3214 67.5703C99.8417 67.0907 100.203 66.4639 100.356 65.7738C101.531 66.4318 103.127 65.8812 103.899 64.7801C104.255 64.2079 104.477 63.563 104.548 62.8934C104.619 62.2238 104.539 61.5467 104.311 60.9126C103.849 59.647 103.164 58.4738 102.289 57.448C103.248 56.7228 104.253 55.9485 104.711 54.8384C105.168 53.7282 104.836 52.1929 103.715 51.7632C104.166 51.0817 104.411 50.285 104.42 49.4684C104.43 48.6518 104.203 47.8497 103.768 47.1581C103.333 46.4664 102.707 45.9145 101.966 45.5683C101.225 45.222 100.4 45.0961 99.5887 45.2055C98.7231 45.304 98.0772 45.8098 97.2206 45.4383C96.5568 45.1473 96.1487 44.27 95.597 43.8179C93.1482 41.8304 89.1251 44.4311 90.6321 47.5421Z" fill="#0F8B8D"/>
<path d="M155.172 94.999C154.689 106.204 149.889 116.79 141.773 124.547C133.658 132.305 122.855 136.636 111.618 136.636C100.38 136.636 89.5772 132.305 81.4621 124.547C73.347 116.79 68.5469 106.204 68.0635 94.999H155.172Z" fill="#0F8B8D"/>
<path d="M137.358 94.999C137.358 94.999 130.953 129.148 124.091 130.388C117.229 131.628 137.358 133.034 147.489 117.626C156.303 104.229 155.172 94.999 155.172 94.999H137.358Z" fill="url(#paint0_linear_426_266)"/>
<path d="M80.1104 95.2363C80.1104 95.2363 83.6491 127.496 104.715 130.706C125.782 133.915 131.572 131.35 131.572 131.35C131.572 131.35 118.565 144.188 100.854 139.372C83.1423 134.555 73.2796 115.679 73.2796 115.679C73.2796 115.679 67.5746 99.896 68.0545 94.999L80.1104 95.2363Z" fill="url(#paint1_linear_426_266)"/>
<path d="M94.5657 98.2801C94.6554 98.1548 94.7854 97.9354 94.9424 97.7385C95.364 97.17 95.7901 97.1924 96.0592 97.8638C96.5077 98.9515 97.028 100.053 96.7006 101.275C96.553 101.639 96.3633 101.984 96.1354 102.304C95.4492 103.54 93.857 104.395 94.5208 106.19C94.5504 106.274 94.5618 106.363 94.554 106.452C94.5463 106.541 94.5197 106.627 94.476 106.704C93.9108 107.532 94.2741 108.155 94.7765 108.871C95.4761 109.869 95.9695 111.015 96.6871 112.004C97.7142 113.401 98.3062 115.138 99.858 116.118C100.612 116.592 101.432 116.982 102.141 117.51C102.52 117.802 102.782 118.22 102.881 118.687C103.051 119.923 103.051 121.18 103.181 122.425C103.285 123.423 103.522 124.417 103.63 125.415C103.732 125.979 103.719 126.557 103.594 127.116C103.304 127.931 103.296 128.82 103.572 129.641C103.814 130.375 104.02 131.122 104.24 131.879C104.895 133.933 107.945 135.46 110.111 134.811L107.806 133.651C108.223 133.204 108.546 132.877 108.909 132.496L107.954 131.923L108.851 131.386C108.752 130.961 108.653 130.522 108.537 129.985L109.882 130.2C109.931 129.837 109.976 129.529 110.03 129.153C110.887 129.068 111.748 128.996 112.721 128.906C112.622 128.333 112.528 127.801 112.43 127.268C113.892 127.684 114.78 127.335 115.744 126.095C116.175 125.618 116.636 125.17 117.125 124.752C117.758 124.121 118.471 123.539 118.471 122.514C118.471 122.358 118.843 122.147 119.076 122.044C120.238 121.561 121.247 120.675 122.665 120.791C122.875 120.791 123.194 120.496 123.324 120.254C123.992 118.969 124.638 117.662 125.261 116.355C125.358 116.103 125.382 115.828 125.329 115.563C125.239 114.9 125.091 114.247 125.992 114.001C126.127 113.96 126.217 113.732 126.324 113.589C126.867 112.823 127.392 112.04 127.966 111.301C128.414 110.737 128.522 109.144 128.078 108.616C127.988 108.513 127.809 108.387 127.719 108.41C126.786 108.669 126.27 108.011 125.719 107.515C125.507 107.307 125.245 107.157 124.959 107.079C124.672 107 124.37 106.996 124.082 107.067C123.606 107.156 123.068 106.857 122.57 106.91C121.548 107.013 120.978 106.328 120.261 105.814C119.704 105.42 118.973 105.071 118.345 105.89C117.448 105.33 116.771 104.654 116.664 103.589C116.642 102.945 116.408 102.326 115.996 101.829C115.585 101.333 115.02 100.986 114.39 100.845C113.825 100.7 113.237 100.663 112.658 100.733C112.385 100.795 112.099 100.776 111.836 100.678C111.573 100.581 111.344 100.408 111.178 100.182C110.622 99.4752 110.133 98.6516 109.097 98.4636C108.931 98.4636 108.716 98.1413 108.68 97.9399C108.653 97.698 108.553 97.4701 108.393 97.2869C108.232 97.1036 108.02 96.9738 107.783 96.9148C107.539 96.8382 107.288 96.7828 107.034 96.7492C106.737 96.7068 106.435 96.7068 106.137 96.7492C105.552 96.835 104.955 96.7998 104.384 96.6458C103.813 96.4918 103.28 96.2223 102.818 95.854C101.356 94.7349 98.9296 95.3168 97.8846 96.8343L97.8398 96.8969C97.62 97.2103 97.3912 97.5281 97.1491 97.8638C96.849 97.6004 96.5263 97.3637 96.1848 97.1566C95.7094 96.9193 95.2384 96.7089 94.7002 97.1789C94.5365 97.2515 94.3573 97.2821 94.1787 97.268C94.0001 97.254 93.8279 97.1957 93.6776 97.0984C93.5969 97.0312 94.2697 95.0796 94.2024 95.0125H91.2153C91.2557 95.1423 92.5609 97.1655 92.6012 97.2506L94.5657 98.2801Z" fill="url(#paint2_linear_426_266)"/>
<path d="M139.838 128.504C139.008 130.249 137.595 131.637 136.156 132.926C132.75 136.075 129.017 138.851 125.019 141.207C122.624 142.603 120.103 143.772 117.489 144.699C105.653 148.844 92.6149 147.246 80.3348 144.699C74.1768 143.423 67.8126 141.919 61.668 143.248C57.6315 144.121 53.9672 146.158 50.3657 148.172L36.1122 156.158C33.6786 153.591 31.5214 150.776 29.6762 147.76C28.053 145.117 26.7007 142.317 25.6396 139.403C24.5123 136.24 23.6864 132.977 23.1729 129.658C25.5858 128.517 29.5416 128.857 31.7707 128.436C36.628 127.514 41.3822 126.091 46.1229 124.672L59.282 120.724C61.7577 119.981 64.2155 119.238 66.633 118.284C68.8486 117.389 70.9969 116.337 73.2888 115.679C76.9441 114.627 80.8058 114.645 84.6046 114.663L103.491 114.775C103.852 114.744 104.215 114.812 104.541 114.972C105.388 115.5 104.989 116.821 104.366 117.595C101.755 120.872 97.2749 121.941 93.1127 122.362C91.8793 122.488 90.6056 122.586 89.5023 123.141C88.3989 123.696 87.484 124.851 87.632 126.077C87.8428 127.931 90.0494 128.727 91.8793 129.099C97.2375 130.164 102.637 130.98 108.079 131.547C111.116 131.856 114.192 132.076 117.211 131.624C125.194 130.433 131.85 124.712 139.73 122.975C140.82 124.573 140.668 126.762 139.838 128.504Z" fill="#FAAF90"/>
<path d="M111.483 98.0026C135.498 98.0026 154.966 96.7641 154.966 95.2363C154.966 93.7085 135.498 92.47 111.483 92.47C87.4683 92.47 68.0005 93.7085 68.0005 95.2363C68.0005 96.7641 87.4683 98.0026 111.483 98.0026Z" fill="#3E3E54"/>
<path d="M98.7683 88.7861C101.095 88.2822 103.459 87.9634 105.837 87.8326C109.066 87.5954 112.34 87.4432 115.515 88.0788C117.613 88.5669 119.675 89.1965 121.687 89.9633C130.183 92.9021 138.985 94.8751 147.924 95.8451C131.097 96.418 114.26 95.8451 97.4497 95.0259C95.1474 94.9095 92.8465 94.7887 90.5472 94.6634C88.7891 94.5694 85.7572 94.9588 84.2412 94.1889C85.2369 92.5998 88.9774 92.2149 90.6503 91.5837C93.3324 90.581 95.9696 89.453 98.7683 88.7861Z" fill="#3E3E54"/>
<path d="M101.055 89.4618C101.055 89.4618 99.9701 64.9052 94.7764 56.2392L96.3417 55.5186C96.3417 55.5186 103.702 89.3409 103.823 89.7035C103.944 90.0661 102.863 91.1449 101.055 89.4618Z" fill="#3E3E54"/>
<path d="M116.601 47.6854C116.116 47.5514 115.605 47.5479 115.119 47.6753C114.633 47.8027 114.189 48.0564 113.833 48.4106C113.132 49.1344 112.722 50.0902 112.681 51.0963C112.703 51.4912 112.635 51.8859 112.483 52.2512C112.292 52.5336 112.041 52.7705 111.748 52.945C110.621 53.673 109.739 54.7205 109.214 55.953C108.765 57.2019 108.972 58.7551 109.985 59.619C108.64 60.8992 107.859 62.9001 108.438 64.6637C109.016 66.4274 111.232 67.6001 112.878 66.7407C112.971 67.4417 113.277 68.0975 113.754 68.62C114.232 69.1425 114.858 69.5067 115.549 69.6636C116.24 69.8205 116.962 69.7627 117.619 69.4978C118.276 69.233 118.836 68.7738 119.224 68.182C120.09 69.2116 121.781 69.2608 122.893 68.5043C123.429 68.0948 123.866 67.5697 124.17 66.9682C124.475 66.3668 124.639 65.7045 124.651 65.0308C124.667 63.6848 124.444 62.3467 123.992 61.0783C125.145 60.7426 126.36 60.371 127.181 59.4937C128.002 58.6163 128.239 57.0676 127.338 56.2663C128.007 55.7902 128.524 55.131 128.827 54.3682C129.129 53.6054 129.204 52.7715 129.042 51.9672C128.881 51.1629 128.489 50.4224 127.916 49.835C127.342 49.2476 126.61 48.8384 125.808 48.6567C124.965 48.4419 124.18 48.6881 123.512 48.039C122.996 47.5332 122.929 46.5663 122.57 45.9486C120.983 43.236 116.3 44.2432 116.601 47.6854Z" fill="#0F8B8D"/>
<path d="M117.372 68.1059C117.341 67.2823 117.318 66.405 117.74 65.6977C118.005 65.3021 118.334 64.9528 118.713 64.6637C119.329 64.1101 120.004 63.6267 120.727 63.2224C121.458 62.8194 122.299 62.6624 123.126 62.7747C122.207 63.6163 120.884 63.8983 119.924 64.6771C118.825 65.6155 117.974 66.8102 117.448 68.1552C116.717 70.5678 116.681 73.4819 116.305 75.9841C115.928 78.4863 115.551 81.0646 115.17 83.5937C114.775 86.2794 114.085 89.0592 113.977 91.7628C113.977 92.1433 112.56 92.7744 111.465 90.5587C112.811 86.5301 113.923 82.4254 114.937 78.3117C115.793 74.8068 116.551 71.2661 117.076 67.6941C117.314 66.0827 117.717 64.2474 117.632 62.6181C117.538 60.8947 115.717 59.2072 114.264 58.4686C114.165 58.4149 114.062 58.3656 113.959 58.3209C113.807 58.4283 113.923 58.67 114.049 58.8133C115.152 60.0398 116.637 61.02 117.215 62.5643C117.368 62.9717 117.448 63.4014 117.587 63.8132C117.498 63.5491 117.821 62.7792 117.78 62.3987C117.707 61.8916 117.668 61.3802 117.664 60.8679C117.682 59.6687 117.594 58.4703 117.399 57.2869L119.121 57.166C119.121 57.166 118.395 62.0003 117.498 68.0567" fill="#3E3E54"/>
<path d="M136.057 50.9886C135.572 50.8542 135.061 50.8505 134.575 50.9779C134.089 51.1053 133.645 51.3592 133.289 51.7138C132.588 52.4376 132.178 53.3935 132.137 54.3995C132.157 54.7943 132.09 55.1886 131.939 55.5544C131.748 55.8368 131.497 56.0737 131.204 56.2482C130.078 56.975 129.196 58.0209 128.67 59.2517C128.221 60.5051 128.423 62.0583 129.441 62.9223C128.096 64.2025 127.315 66.2033 127.894 67.967C128.472 69.7306 130.688 70.9034 132.334 70.0439C132.427 70.745 132.733 71.4008 133.211 71.9233C133.688 72.4457 134.314 72.8099 135.005 72.9668C135.696 73.1237 136.418 73.0659 137.075 72.801C137.732 72.5362 138.293 72.0771 138.68 71.4853C139.546 72.5148 141.237 72.564 142.349 71.8076C142.884 71.3967 143.319 70.8713 143.624 70.2701C143.928 69.669 144.093 69.0074 144.107 68.334C144.121 66.9878 143.897 65.6497 143.444 64.3815C144.601 64.0458 145.812 63.6743 146.637 62.7969C147.462 61.9196 147.691 60.3708 146.794 59.5696C147.463 59.0934 147.98 58.4342 148.283 57.6714C148.585 56.9086 148.66 56.0748 148.498 55.2704C148.337 54.4661 147.945 53.7256 147.372 53.1383C146.798 52.5509 146.066 52.1417 145.264 51.96C144.421 51.7451 143.636 51.9913 142.968 51.3423C142.448 50.8364 142.381 49.8696 142.026 49.2519C140.439 46.5437 135.756 47.5464 136.057 50.9886Z" fill="#0F8B8D"/>
<path d="M136.828 71.4094C136.797 70.5858 136.774 69.7084 137.192 69.0012C137.459 68.6055 137.789 68.2562 138.169 67.9672C138.785 67.4136 139.46 66.9302 140.183 66.5258C140.914 66.1225 141.755 65.9655 142.583 66.0782C141.663 66.9197 140.34 67.2017 139.38 67.9806C138.281 68.9199 137.429 70.1142 136.9 71.4586C136.173 73.8713 136.138 76.7853 135.761 79.2875C135.384 81.7898 135.003 84.3681 134.626 86.8971C134.231 89.5829 133.541 92.3626 133.429 95.0663C133.429 95.4467 132.016 96.0779 130.921 93.8622C132.267 89.8335 133.379 85.7288 134.388 81.6152C135.249 78.1103 136.007 74.5696 136.532 70.9976C136.765 69.3861 137.174 67.5509 137.084 65.9215C136.994 64.1982 135.169 62.5106 133.72 61.7721C133.621 61.7184 133.518 61.6691 133.415 61.6244C133.263 61.7318 133.375 61.9735 133.505 62.1167C134.608 63.3432 136.093 64.3235 136.671 65.8678C136.824 66.2752 136.904 66.7049 137.043 67.1167C136.954 66.8526 137.277 66.0827 137.232 65.7022C137.163 65.1946 137.124 64.6834 137.115 64.1713C137.138 62.9721 137.05 61.7732 136.851 60.5903L138.577 60.4695C138.577 60.4695 137.851 65.3038 136.945 71.3601" fill="#3E3E54"/>
<path d="M123.041 69.9724C122.771 69.8974 122.486 69.8956 122.215 69.9672C121.943 70.0388 121.696 70.1812 121.498 70.3797C121.105 70.7847 120.875 71.3202 120.853 71.8838C120.864 72.1043 120.825 72.3245 120.74 72.5283C120.635 72.6863 120.495 72.8192 120.332 72.9178C119.703 73.3239 119.209 73.9084 118.915 74.5963C118.779 74.9441 118.749 75.3243 118.829 75.6891C118.909 76.0539 119.095 76.3869 119.364 76.6465C118.974 76.9911 118.688 77.4364 118.536 77.9332C118.384 78.43 118.372 78.9591 118.502 79.462C118.825 80.4468 120.059 81.1048 120.978 80.6258C121.032 81.0169 121.204 81.3823 121.471 81.6733C121.738 81.9642 122.088 82.1668 122.474 82.2539C122.859 82.341 123.263 82.3085 123.629 82.1608C123.996 82.013 124.309 81.757 124.526 81.4271C124.79 81.6956 125.141 81.8615 125.517 81.8951C125.892 81.9288 126.268 81.8279 126.576 81.6106C126.874 81.3813 127.117 81.0882 127.287 80.7528C127.457 80.4173 127.55 80.0482 127.558 79.6724C127.565 78.9195 127.441 78.1712 127.19 77.4611C127.857 77.3283 128.477 77.0191 128.984 76.5659C129.433 76.078 129.572 75.223 129.074 74.7754C129.443 74.5072 129.727 74.1389 129.893 73.7142C130.059 73.2895 130.099 72.8263 130.009 72.3795C129.919 71.9327 129.702 71.5211 129.384 71.1936C129.067 70.8661 128.662 70.6365 128.217 70.5319C127.746 70.4111 127.32 70.5319 126.934 70.1873C126.643 69.9053 126.607 69.3636 126.405 69.019C125.49 67.4881 122.88 68.0521 123.041 69.9724Z" fill="#0F8B8D"/>
<path d="M123.472 81.3823C123.412 80.9242 123.483 80.4584 123.678 80.0394C123.824 79.817 124.008 79.6216 124.221 79.462C124.564 79.151 124.941 78.8806 125.347 78.6563C125.756 78.4295 126.228 78.3415 126.692 78.4056C126.181 78.8532 125.445 79.0323 124.898 79.4664C124.285 79.9918 123.809 80.6586 123.512 81.4091C123.109 82.752 123.086 84.3858 122.875 85.7824L122.243 90.0393C122.023 91.5344 121.637 93.0966 121.575 94.605C121.575 94.8199 120.785 95.1691 120.175 93.9336C120.915 91.6955 121.548 89.3902 122.113 87.0895C122.593 85.1334 123.01 83.1549 123.306 81.1585C123.5 80.2261 123.604 79.2772 123.615 78.325C123.566 77.3626 122.548 76.4181 121.736 76.0063L121.566 75.9213C121.48 75.9839 121.566 76.1182 121.615 76.1988C122.234 76.8837 123.064 77.4298 123.387 78.2937C123.472 78.522 123.517 78.7413 123.593 78.992C123.544 78.8443 123.723 78.4145 123.701 78.2041C123.66 77.9194 123.637 77.6323 123.633 77.3447C123.647 76.6731 123.597 76.0017 123.485 75.3394L124.45 75.2722L123.553 81.3554" fill="#3E3E54"/>
<path d="M146.965 70.3574C146.696 70.2368 146.4 70.1895 146.107 70.2201C145.814 70.2508 145.534 70.3584 145.296 70.5319C144.826 70.8922 144.506 71.4138 144.399 71.9957C144.375 72.2249 144.301 72.4462 144.184 72.6447C144.05 72.7943 143.882 72.9108 143.695 72.9849C142.978 73.3088 142.373 73.8386 141.959 74.5068C141.761 74.8441 141.668 75.2322 141.69 75.6225C141.712 76.0127 141.85 76.3876 142.085 76.7002C141.625 76.9965 141.256 77.4136 141.019 77.9056C140.782 78.3976 140.685 78.9455 140.739 79.4889C140.923 80.5632 142.085 81.436 143.13 81.0824C143.123 81.4968 143.242 81.9035 143.473 82.248C143.704 82.5924 144.035 82.8582 144.422 83.0097C144.808 83.1612 145.232 83.1911 145.636 83.0954C146.04 82.9998 146.405 82.7831 146.682 82.4745C146.915 82.7935 147.254 83.0197 147.638 83.1132C148.022 83.2066 148.427 83.1611 148.781 82.9848C149.131 82.7952 149.434 82.5294 149.667 82.207C149.9 81.8846 150.057 81.514 150.127 81.1227C150.251 80.3432 150.239 79.548 150.091 78.7727C150.799 78.741 151.485 78.5199 152.078 78.1326C152.634 77.685 152.903 76.821 152.454 76.2794C152.881 76.0597 153.235 75.7224 153.474 75.3075C153.714 74.8926 153.829 74.4178 153.806 73.9395C153.783 73.4612 153.622 72.9996 153.344 72.6097C153.065 72.2199 152.68 71.9182 152.235 71.7405C151.786 71.5436 151.288 71.6197 150.961 71.181C150.701 70.8408 150.75 70.2857 150.598 69.8874C149.893 68.1595 147.099 68.3341 146.965 70.3574Z" fill="#0F8B8D"/>
<path d="M145.615 82.2597C145.627 81.7815 145.773 81.3163 146.036 80.9168C146.225 80.7093 146.448 80.5353 146.696 80.4021C147.1 80.1353 147.533 79.9146 147.987 79.7441C148.446 79.5737 148.948 79.5564 149.418 79.6948C148.812 80.1022 148.028 80.1425 147.395 80.5185C146.674 80.9623 146.075 81.5774 145.651 82.309C145.014 83.6518 144.754 85.3259 144.305 86.7449L142.959 91.0645C142.511 92.5819 141.847 94.1396 141.547 95.6973C141.506 95.9167 140.65 96.145 140.201 94.8021C141.327 92.564 142.345 90.3035 143.291 88.0027C144.099 86.0466 144.848 84.0636 145.467 82.0359C145.815 81.0975 146.072 80.1276 146.234 79.1398C146.332 78.1371 145.426 76.9957 144.65 76.4541L144.484 76.3421C144.386 76.3914 144.431 76.5436 144.484 76.6376C145.018 77.4433 145.79 78.1416 145.991 79.0906C146.041 79.3367 146.05 79.5964 146.095 79.847C146.068 79.6859 146.323 79.2651 146.332 79.0413C146.335 78.7418 146.358 78.4427 146.4 78.1461C146.516 77.451 146.57 76.7469 146.561 76.0422L147.57 76.1228L145.668 82.2955" fill="#3E3E54"/>
<path d="M75.4369 70.3574C75.1257 70.385 74.827 70.4933 74.5706 70.6715C74.3141 70.8498 74.1087 71.0918 73.9748 71.3735C73.7185 71.948 73.6833 72.5967 73.8761 73.1954C73.9732 73.4229 74.0191 73.6689 74.0107 73.916C73.958 74.1221 73.8617 74.3144 73.7281 74.48C73.2258 75.1468 72.9338 75.9478 72.8894 76.7808C72.8751 77.1978 72.9851 77.6097 73.2054 77.9643C73.4258 78.3189 73.7466 78.6002 74.1273 78.7728C73.8499 79.2826 73.7198 79.8593 73.7515 80.4386C73.7832 81.018 73.9754 81.5771 74.3067 82.0538C75.0243 82.9491 76.5492 83.1774 77.3521 82.3224C77.5544 82.7183 77.8743 83.0421 78.268 83.2497C78.6617 83.4573 79.1101 83.5384 79.5518 83.4821C79.9934 83.4258 80.4069 83.2347 80.7357 82.935C81.0645 82.6353 81.2925 82.2416 81.3886 81.8076C81.768 81.9882 82.1994 82.0279 82.6055 81.9196C83.0116 81.8113 83.3657 81.5622 83.6042 81.2168C83.8295 80.8615 83.9722 80.4604 84.0219 80.0429C84.0716 79.6254 84.0269 79.2021 83.8913 78.8041C83.6108 78.0129 83.1916 77.2779 82.6534 76.6331C83.2973 76.2407 83.8251 75.6846 84.1828 75.0217C84.4743 74.3323 84.277 73.3744 83.5818 73.1014C83.8665 72.6795 84.0238 72.1849 84.0349 71.6763C84.046 71.1678 83.9105 70.6668 83.6445 70.2329C83.3784 69.7991 82.9931 69.4506 82.5343 69.2291C82.0756 69.0075 81.5627 68.9222 81.0567 68.9832C80.5185 69.037 80.1104 69.3503 79.5811 69.1086C79.1685 68.925 78.9218 68.3745 78.5765 68.088C77.0471 66.8167 74.522 68.4058 75.4369 70.3574Z" fill="#0F8B8D"/>
<path d="M80.272 82.1478C80.03 81.6902 79.9257 81.1726 79.9715 80.6572C80.041 80.3692 80.1593 80.0952 80.3213 79.847C80.561 79.3896 80.853 78.9616 81.1914 78.5713C81.5316 78.1797 81.9894 77.9081 82.4966 77.7969C82.1378 78.4817 81.4336 78.9294 81.03 79.5874C80.5881 80.3718 80.3463 81.2526 80.3258 82.1523C80.4155 83.7189 81.021 85.4333 81.3394 86.9776C81.6579 88.5219 81.9853 90.111 82.3127 91.6821C82.6535 93.3339 82.8464 95.1154 83.3622 96.7224C83.4384 96.9462 82.7522 97.6176 81.6354 96.5523C81.5502 93.9113 81.3305 91.2659 81.0389 88.6428C80.7878 86.4047 80.4738 84.1666 80.0118 81.9687C79.8554 80.9161 79.6002 79.8805 79.2494 78.8757C78.8278 77.8909 77.3971 77.2911 76.3879 77.1657H76.1771C76.1099 77.2597 76.2309 77.3761 76.3341 77.4343C77.2311 77.9133 78.3255 78.1729 78.9937 78.9517C79.1687 79.1577 79.3122 79.3994 79.4781 79.6053C79.3705 79.471 79.3929 78.9473 79.2898 78.7369C79.1379 78.4472 79.0046 78.1482 78.8906 77.8416C78.6445 77.1336 78.3353 76.4489 77.9667 75.796L78.9489 75.3484C78.9489 75.3484 79.5633 78.334 80.3303 82.0627" fill="#3E3E54"/>
<path d="M99.2212 63.37C99.6697 62.6001 100.338 61.9331 100.679 61.0961C100.976 60.212 101.094 59.2776 101.024 58.3477C101.177 59.1951 101.235 60.0568 101.199 60.917C101.539 60.811 101.9 60.7875 102.251 60.8482C102.601 60.9089 102.933 61.0522 103.217 61.2662C102.32 61.3467 101.387 61.4407 100.656 61.96C99.7594 62.6001 99.3737 63.7505 99.2481 64.8427C99.1225 65.9349 99.1943 67.0539 98.9521 68.1327C98.9521 67.327 98.5484 66.5571 98.4587 65.7872C98.369 65.0172 98.822 64.028 99.2212 63.37Z" fill="#3E3E54"/>
<path d="M94.3055 59.3817C94.1082 58.9699 93.9512 58.4865 93.5431 58.2761L95.0276 61.1141L92.6999 61.8526C92.4981 61.9153 92.2514 62.0764 92.3321 62.2689C92.9735 62.3271 93.5924 62.0451 94.2293 61.9556C94.9378 61.8728 95.6541 62.0207 96.2716 62.3772C96.8891 62.7338 97.3746 63.2798 97.6559 63.9341C97.5976 63.7908 97.7904 63.2582 97.7904 63.0702C97.8104 62.7973 97.7578 62.524 97.6379 62.2779C97.4361 61.9869 96.9562 61.8616 96.6602 61.6781C95.673 61.151 94.8563 60.3546 94.3055 59.3817Z" fill="#3E3E54"/>
<path d="M87.3494 71.9062C87.0394 71.9346 86.7425 72.0444 86.4889 72.2244C86.2352 72.4045 86.0338 72.6483 85.9052 72.9312C85.6555 73.507 85.6299 74.155 85.8335 74.7486C85.9305 74.973 85.9765 75.2161 85.968 75.4603C85.9195 75.6661 85.8261 75.8587 85.6944 76.0243C85.2024 76.6939 84.9228 77.4953 84.8916 78.3251C84.8826 78.7382 84.9967 79.1446 85.2195 79.4929C85.4423 79.8411 85.7637 80.1155 86.1429 80.2812C85.8743 80.7922 85.7522 81.3673 85.7902 81.943C85.8282 82.5188 86.0247 83.073 86.3582 83.5444C87.0803 84.4396 88.6232 84.6321 89.3856 83.7727C89.5942 84.1582 89.9158 84.471 90.3075 84.6689C90.6991 84.8669 91.142 84.9406 91.5769 84.8802C92.0117 84.8198 92.4176 84.6282 92.7402 84.331C93.0628 84.0339 93.2867 83.6454 93.3818 83.2176C93.762 83.3916 94.1918 83.425 94.5944 83.3119C94.997 83.1987 95.3462 82.9464 95.5795 82.5999C95.7987 82.2452 95.9355 81.8459 95.9797 81.4315C96.0239 81.017 95.9745 80.598 95.8351 80.2051C95.5471 79.4205 95.1219 78.693 94.5793 78.0565C95.2139 77.6592 95.7322 77.1018 96.0818 76.4406C96.3644 75.7513 96.1581 74.8023 95.4629 74.5337C95.7419 74.1114 95.8933 73.6178 95.899 73.1119C95.9046 72.606 95.7643 72.1092 95.4948 71.6807C95.2253 71.2522 94.8379 70.9101 94.379 70.6954C93.92 70.4806 93.4088 70.4021 92.9064 70.4693C92.3682 70.532 91.969 70.8453 91.4398 70.617C91.0272 70.438 90.776 69.8919 90.4306 69.6099C88.9102 68.37 86.4165 69.9769 87.3494 71.9062Z" fill="#0F8B8D"/>
<path d="M93.8124 97.8862C93.8124 97.8862 93.1396 82.667 89.9238 77.2955L90.8971 76.8479C90.8971 76.8479 95.4539 97.8101 95.5212 98.0205C95.5884 98.2309 94.9336 98.9157 93.8124 97.8862Z" fill="#3E3E54"/>
<path d="M92.6728 81.7135C93.0058 81.2676 93.3056 80.7978 93.5698 80.308C93.7525 79.759 93.8241 79.1793 93.7806 78.6025C93.8747 79.1282 93.9108 79.6626 93.8882 80.1961C94.099 80.1309 94.3222 80.1164 94.5397 80.1537C94.7572 80.191 94.9627 80.2792 95.1395 80.4109C94.58 80.4175 94.0321 80.572 93.5518 80.8586C93.2912 81.0815 93.0791 81.3554 92.9287 81.6634C92.7783 81.9713 92.6927 82.3068 92.6773 82.6491C92.6537 83.3321 92.5938 84.0135 92.4979 84.6902C92.4243 84.1998 92.3225 83.7141 92.1929 83.2354C92.1947 82.6913 92.362 82.1606 92.6728 81.7135Z" fill="#3E3E54"/>
<path d="M89.6274 79.2427C89.5018 78.9876 89.4076 78.6832 89.1519 78.5579L90.0489 80.317L88.6092 80.7646C88.4837 80.8049 88.3267 80.9079 88.3805 81.0243C88.7782 81.0042 89.1724 80.9397 89.5556 80.8318C89.9952 80.779 90.4401 80.87 90.8235 81.0912C91.2069 81.3123 91.508 81.6517 91.6815 82.0583C91.6456 81.9687 91.7622 81.6375 91.7622 81.5211C91.7763 81.3515 91.7437 81.1812 91.6681 81.0287C91.5425 80.8497 91.2465 80.7736 91.0626 80.6572C90.4617 80.328 89.9647 79.8382 89.6274 79.2427Z" fill="#3E3E54"/>
<path d="M129.401 29.9953C135.396 29.9953 140.255 25.1454 140.255 19.1628C140.255 13.1802 135.396 8.33032 129.401 8.33032C123.407 8.33032 118.547 13.1802 118.547 19.1628C118.547 25.1454 123.407 29.9953 129.401 29.9953Z" fill="#0F8B8D"/>
<path d="M113.075 12.1978C114.779 14.9212 115.628 18.0904 115.515 21.2989C115.401 24.5073 114.33 27.6088 112.438 30.2057C115.071 30.3847 117.731 30.9353 120.009 32.2692C122.288 33.6031 124.144 35.7965 124.633 38.3882C126.666 35.5992 129.692 33.6942 133.09 33.0655C136.488 32.4368 139.997 33.1322 142.896 35.0087C142.448 31.2218 140.277 27.4617 141.345 23.7957C142.134 21.11 144.484 19.1897 146.727 17.4663C144.715 16.0658 143.128 14.1396 142.14 11.8989C141.152 9.65825 140.801 7.18939 141.125 4.76277C138.927 6.6025 135.765 7.00088 132.984 6.31602C130.657 5.72516 129.199 4.19876 127.154 3.20504C125.808 2.55599 126.154 2.60075 125.207 3.78247C124.539 4.61057 124.037 5.54611 123.328 6.35183C121.986 7.87749 120.399 9.16941 118.632 10.1745C118.108 10.47 113.461 12.7931 113.075 12.1978Z" fill="url(#paint3_linear_426_266)"/>
<path d="M125.297 138.812L125.019 141.207C122.623 142.603 120.102 143.772 117.489 144.699C105.653 148.844 92.6145 147.246 80.3344 144.699C74.1764 143.423 67.8122 141.919 61.6676 143.248C57.6311 144.121 53.9668 146.158 50.3653 148.172L36.1118 156.158C33.6782 153.591 31.521 150.776 29.6758 147.76C32.5911 146.256 51.4238 136.722 59.2053 137.608C67.6462 138.571 90.8025 142.662 96.3505 142.425C101.899 142.188 125.297 138.812 125.297 138.812Z" fill="url(#paint4_linear_426_266)"/>
</g>
<defs>
<linearGradient id="paint0_linear_426_266" x1="124.36" y1="106.445" x2="192.116" y2="136.889" gradientUnits="userSpaceOnUse">
<stop offset="0.02" stop-color="white" stop-opacity="0"/>
<stop offset="0.32" stop-color="white" stop-opacity="0.39"/>
<stop offset="0.68" stop-color="white" stop-opacity="0.68"/>
<stop offset="1" stop-color="white"/>
</linearGradient>
<linearGradient id="paint1_linear_426_266" x1="57.9811" y1="144.036" x2="110.975" y2="104.935" gradientUnits="userSpaceOnUse">
<stop offset="0.01"/>
<stop offset="0.13" stop-opacity="0.69"/>
<stop offset="1" stop-opacity="0"/>
</linearGradient>
<linearGradient id="paint2_linear_426_266" x1="7773.44" y1="5647.57" x2="7311.65" y2="18923.4" gradientUnits="userSpaceOnUse">
<stop offset="0.01"/>
<stop offset="0.13" stop-opacity="0.69"/>
<stop offset="1" stop-opacity="0"/>
</linearGradient>
<linearGradient id="paint3_linear_426_266" x1="7303.36" y1="1925.6" x2="9924.35" y2="1925.6" gradientUnits="userSpaceOnUse">
<stop offset="0.02" stop-color="white" stop-opacity="0"/>
<stop offset="0.32" stop-color="white" stop-opacity="0.39"/>
<stop offset="0.68" stop-color="white" stop-opacity="0.68"/>
<stop offset="1" stop-color="white"/>
</linearGradient>
<linearGradient id="paint4_linear_426_266" x1="12966.3" y1="8471.5" x2="12942.9" y2="4355.12" gradientUnits="userSpaceOnUse">
<stop offset="0.01"/>
<stop offset="0.13" stop-opacity="0.69"/>
<stop offset="1" stop-opacity="0"/>
</linearGradient>
<clipPath id="clip0_426_266">
<rect width="231.318" height="174" fill="white"/>
</clipPath>
</defs>
</svg>
