<svg width="291" height="194" viewBox="0 0 291 194" fill="none" xmlns="http://www.w3.org/2000/svg">
<g clip-path="url(#clip0_426_345)">
<path d="M150.106 148.087C185.82 148.087 214.772 119.134 214.772 83.4201C214.772 47.7057 185.82 18.7534 150.106 18.7534C114.391 18.7534 85.439 47.7057 85.439 83.4201C85.439 119.134 114.391 148.087 150.106 148.087Z" fill="url(#paint0_linear_426_345)"/>
<path d="M194.175 154.428C197.355 153.353 200.11 151.066 201.719 148.131C202.174 147.322 202.545 146.392 202.423 145.472C202.392 145.285 202.344 145.063 202.175 144.975C202.024 144.888 201.819 144.936 201.648 144.984C196.338 146.417 190.724 148.831 185.15 148.577C184.894 148.573 184.64 148.552 184.417 148.651C184.143 148.765 183.969 149.018 183.847 149.288C183.425 150.166 183.06 151.827 183.198 152.815C183.367 153.991 184.504 154.161 185.503 154.415C188.349 155.138 191.338 155.388 194.175 154.428Z" fill="#F8AE9D"/>
<path d="M194.666 147.837C195.094 147.656 195.538 147.476 195.998 147.466C196.457 147.456 196.964 147.702 197.11 148.146C197.207 148.454 197.117 148.775 196.994 149.063C196.659 149.806 196.072 150.409 195.452 150.944C193.075 152.948 190.029 154.16 186.915 154.351C185.536 154.432 184.092 154.308 182.878 153.661C183.484 152.921 183.364 151.865 183.43 150.931C183.624 148.196 185.955 149.235 187.826 149.229C190.173 149.18 192.51 148.722 194.666 147.837Z" fill="#F8AE9D"/>
<path d="M123.518 127.609L123.412 127.913C122.665 130.078 122.087 132.314 121.848 134.606C121.41 138.817 122.236 143.744 125.404 146.802C129.627 150.879 136.402 151.509 141.91 150.539C144.164 150.145 146.287 149.202 148.09 147.793C149.885 149.419 151.814 151.199 153.419 153.009C156.643 151.881 159.711 150.351 162.552 148.455C169.273 151.532 176.128 153.609 183.366 155.114C184.194 153.056 184.774 150.907 185.096 148.712C185.153 148.356 180.641 145.311 180.121 144.878C178.559 143.562 175.306 140.554 175.306 140.554C175.306 140.554 179.406 137.062 181.2 135.423C183.097 133.719 184.917 131.931 186.655 130.064C188.09 128.521 189.492 126.893 190.371 124.968C191.251 123.06 191.574 120.803 190.839 118.82C188.518 112.645 179.149 114.816 174.797 116.943C171.2 118.708 168.049 121.279 165.016 123.886C163.793 124.921 162.586 125.991 161.397 127.045C160.46 126.078 159.424 124.821 158.539 123.804C157.586 122.701 156.496 121.665 155.18 121.016C153.796 120.314 152.519 120.414 151.043 120.204C150.381 120.109 149.738 119.913 149.094 119.801C147.161 119.448 145.114 119.825 143.415 120.82C141.803 121.764 140.493 122.884 138.6 123.246C136.451 123.656 133.955 123.414 131.8 123.126C129.865 122.859 127.9 122.421 125.972 122.799C125.171 122.957 124.864 124.075 124.6 124.717C124.246 125.647 123.874 126.611 123.518 127.609ZM140.594 56.3949C140.594 56.3949 135.391 55.5671 133.994 64.7524C132.441 74.9639 128.296 73.2842 121.712 81.5757C117.864 86.4206 121.914 94.9769 130.142 94.8072C138.37 94.642 145.802 92.2629 150.535 93.2807C155.268 94.2986 155.528 82.1755 150.858 78.4352C146.188 74.6949 156.145 63.9541 150.077 59.171C144.01 54.3879 140.594 56.3949 140.594 56.3949Z" fill="#173637"/>
<path d="M109.493 96.8977C109.019 95.9225 109.047 94.7899 109.219 93.7326C109.96 89.1953 113.14 85.4039 116.785 82.6255C120.441 79.84 124.627 77.8511 128.474 75.355C129.472 74.7048 130.473 74.0048 131.619 73.6533C132.766 73.3022 134.098 73.34 135.044 74.0791C135.713 74.5977 136.099 75.3996 136.324 76.2021C136.817 77.9585 136.628 79.8183 136.327 81.5999C135.951 83.847 135.4 86.0709 134.494 88.1364C133.769 89.8025 132.587 91.5171 130.811 91.8434C130.297 93.8345 129.239 95.7007 127.756 97.1286C126.058 98.7656 123.907 99.8362 121.673 100.584C119.616 101.274 117.365 101.725 115.296 101.08C114.067 100.705 112.985 99.983 111.927 99.2464C110.983 98.6188 110.003 97.9321 109.493 96.8977ZM128.089 93.872L129.303 91.9436C129.045 91.9704 128.8 92.0206 128.554 92.1208C127.886 92.4095 127.485 93.46 128.089 93.872Z" fill="#173637"/>
<path d="M150.597 64.4724C150.66 64.8135 150.671 65.1708 150.648 65.5785C150.51 67.9601 149.998 70.3052 149.131 72.5276C148.601 73.8458 147.952 75.1453 147.034 76.2369C146.653 76.6902 146.222 77.1086 145.658 77.2702C145.078 77.4313 144.346 77.4542 143.77 77.3094C143.262 79.4104 143.474 83.3758 145.288 84.8657C145.842 85.3164 146.501 85.5983 147.16 85.8463C148.445 86.342 149.783 86.7197 151.122 87.012C152.647 87.3411 154.31 87.5875 155.381 88.7091C155.515 88.8472 155.648 89.0364 155.595 89.2226C155.559 89.3409 155.472 89.4247 155.37 89.4913C154.526 90.1755 153.483 90.5508 152.44 90.9091C150.611 91.5276 148.733 92.043 146.823 92.3883C144.828 92.7492 142.768 92.9218 140.747 92.7042C139.185 92.5274 137.644 92.1297 136.226 91.428C134.741 90.6912 133.22 90.0901 131.683 89.3865C130.383 88.7887 129.101 88.1058 127.693 87.8633C128.358 86.5981 129.747 85.8881 131.129 85.5518C132.512 85.233 133.957 85.2039 135.356 84.9358C135.816 84.8408 136.277 84.7289 136.672 84.4457C137.756 83.6629 137.459 81.924 137.476 80.7849L137.531 77.1807C137.37 75.4609 136.661 74.0217 136.038 72.4477C135.089 70.0357 134.893 67.2948 135.729 64.8248C136.566 62.3717 138.469 60.2409 140.914 59.377C143.358 58.5127 146.293 58.9993 148.17 60.7964C149.36 61.9539 150.33 62.9889 150.597 64.4724Z" fill="#F8AE9D"/>
<path d="M143.078 56.8083C145.515 56.5364 147.736 57.7295 149.382 59.5793C150.767 61.13 151.581 63.1767 151.54 65.2331C151.534 65.5267 151.501 65.8468 151.335 66.1106C150.895 66.743 149.938 66.5102 149.222 66.2286C148.056 65.7779 147.187 65.1193 146.13 64.5638C145.072 64.0083 143.788 64.0894 142.841 63.3225C141.948 62.5834 138.88 61.0259 138.797 59.8221C138.693 58.3506 141.389 57.1488 142.516 56.904C142.677 56.8539 142.864 56.8309 143.078 56.8083Z" fill="#173637"/>
<path d="M136.059 60.1394C133.998 61.4683 133.031 63.7963 132.924 66.2701C132.83 68.3469 133.493 70.4476 134.824 72.0158C135.014 72.2395 135.241 72.4668 135.537 72.5667C136.277 72.7788 136.872 71.9935 137.249 71.3229C137.868 70.2365 138.125 69.1772 138.594 68.0785C139.063 66.9799 140.11 66.2313 140.359 65.0389C140.584 63.9011 141.978 60.7554 141.281 59.7698C140.432 58.5635 137.583 59.3353 136.555 59.8578C136.399 59.9208 136.239 60.0214 136.059 60.1394Z" fill="#173637"/>
<path d="M154.386 88.1837C154.711 88.0356 155.101 88.1436 155.318 88.4359C157.749 91.84 158.687 96.1054 159.509 100.216C160.441 104.89 161.271 109.579 162.067 114.267C162.115 114.506 162.145 114.761 162.039 114.981C161.934 115.2 161.694 115.316 161.472 115.415C160.067 116.09 158.646 116.749 157.241 117.425C155.725 113.976 154.632 110.356 153.987 106.645C153.085 108.927 151.456 110.909 149.379 112.204C150.927 114.421 152.832 118.854 154.69 120.804C154.974 121.115 156.733 120.631 157.126 120.501C157.37 121.202 156.225 120.453 156.232 121.168C155.175 121.322 153.824 120.689 152.738 120.553C151.431 120.397 150.105 120.394 148.793 120.527C146.613 120.766 144.494 121.448 142.557 122.473C141.594 122.986 140.67 123.568 139.793 124.217C139.036 124.783 137.162 126.115 137.162 126.115C137.024 126.215 136.381 126.07 136.228 126.033C135.783 125.958 135.336 125.9 134.887 125.86C133.76 125.772 132.638 125.625 131.527 125.417C129.305 125.01 127.121 124.382 125.026 123.516C124.824 123.36 125.544 121.875 125.583 121.586C125.544 121.858 121.417 121.523 121.01 121.449C119.383 121.118 117.736 120.94 116.109 120.592C116.837 114.039 118.838 107.71 120.804 101.431C121.573 98.9598 122.359 96.4889 123.448 94.1589C124.608 91.6767 126.106 89.3526 127.906 87.2884C127.958 87.2383 128.043 87.2056 128.111 87.2234C128.975 87.4407 134.243 88.7961 136.864 89.7713C138.199 90.2847 139.553 90.7474 140.923 91.2101C141.465 91.3886 142.023 91.5671 142.584 91.5587C142.959 91.5473 143.334 91.4678 143.692 91.3883C147.344 90.5767 150.996 89.6969 154.386 88.1837Z" fill="#0F8B8D"/>
<path d="M130.619 101.24C130.469 102.173 130.268 103.122 130.066 104.054C129.577 106.17 128.949 108.251 128.186 110.284C127.797 111.298 127.391 112.295 126.933 113.291C126.706 113.784 126.472 114.274 126.231 114.76C126.108 114.996 125.985 115.25 125.863 115.486C125.757 115.688 125.636 115.873 125.531 116.059C126.262 116.036 129.873 116.244 130.62 116.307" stroke="white" stroke-width="1.376" stroke-miterlimit="10" stroke-linecap="round"/>
<path d="M130.737 117.039C130.661 117.517 130.569 117.992 130.461 118.463L130.133 119.887C130.025 120.293 129.779 120.8 129.772 121.225C129.774 121.14 132.668 120.895 132.941 120.865C135.955 120.57 138.985 120.395 141.997 120.203C143.955 120.08 145.876 120.126 147.831 120.139C148.409 120.147 149.09 120.09 149.403 119.618C149.665 119.214 149.451 118.701 149.661 118.33C149.796 118.366 151.372 118.764 151.356 118.73C151.418 119.088 151.543 119.838 151.914 120.014C152.044 120.063 152.182 120.088 152.321 120.088C152.525 120.091 152.73 120.06 152.934 120.029C152.966 120.029 152.996 120.017 153.02 119.996C153.054 119.963 153.021 119.911 152.988 119.86C152.524 119.175 152.281 118.364 152.292 117.537C151.804 117.206 151.316 116.824 150.897 116.41C150.563 116.065 150.314 115.619 149.945 115.324C149.559 114.995 149.182 115.194 148.755 115.306C148.26 115.418 147.765 115.546 147.286 115.692C146.347 115.984 145.406 116.344 144.615 116.927C144.34 117.127 144.082 117.344 143.757 117.441C143.449 117.538 143.109 117.533 142.786 117.528C140.797 117.481 138.809 117.383 136.84 117.166C134.82 116.948 133.442 116.978 130.795 116.581C130.795 116.598 130.793 116.751 130.737 117.039Z" fill="#F8AE9D"/>
<path d="M152.64 101.051C153.115 103.107 153.458 105.182 153.69 107.3" stroke="white" stroke-width="1.376" stroke-miterlimit="10" stroke-linecap="round"/>
<path d="M192.741 97.6599L186.904 123.691L142.582 123.018C142.605 121.488 143.866 120.248 145.413 120.272L156.004 120.433L161.283 96.4849C161.448 95.7054 162.153 95.1547 162.935 95.1667L191.123 95.5948C192.194 95.6281 192.978 96.6094 192.741 97.6599Z" fill="#173637"/>
<path d="M134.841 161.264C135.046 160.076 135.626 158.861 136.169 157.798C138.412 153.444 142.421 150.377 146.739 148.266C147.184 148.051 147.629 147.837 148.091 147.674C148.056 147.724 148.021 147.775 147.986 147.842L147.986 147.859H147.969C148.021 147.826 148.055 147.792 148.107 147.759C149.851 149.333 151.712 151.062 153.302 152.804C152.251 153.655 150.727 154.346 149.97 154.912C148.182 156.229 146.46 157.631 144.605 158.861C142.114 160.541 139.459 161.759 136.492 162.292C135.35 162.496 134.752 162.708 134.765 161.824C134.784 161.688 134.804 161.501 134.841 161.264Z" fill="#F8AE9D"/>
<path d="M137.735 157.838C138.891 155.662 140.684 154.006 142.645 152.539C144.021 151.506 145.481 150.576 146.872 149.628C147.267 149.362 148.044 148.642 148.712 148.295C150.104 149.558 151.53 150.889 152.818 152.269C148.561 154.857 144.769 158.234 140.099 160.068C139.671 160.231 139.227 160.395 138.767 160.405C138.308 160.415 137.818 160.22 137.552 159.842C137.135 159.258 137.403 158.462 137.735 157.838Z" fill="#F8AE9D"/>
<path d="M219.741 152.103C219.429 151.949 219.233 151.611 219.259 151.273C219.272 151.094 219.339 150.924 219.452 150.784C219.564 150.644 219.717 150.542 219.889 150.491C219.986 150.463 220.088 150.453 220.19 150.442C220.795 150.373 221.403 150.316 221.999 150.174C222.127 150.142 222.26 150.136 222.39 150.158C222.52 150.18 222.645 150.229 222.755 150.302C223.065 150.499 223.202 150.789 223.164 151.146C223.124 151.505 222.915 151.75 222.576 151.878C222.512 151.903 222.446 151.919 222.379 151.929C221.683 152.031 220.989 152.145 220.287 152.198C220.094 152.212 219.913 152.189 219.741 152.103ZM222.544 154.581C222.414 154.85 222.192 155.03 221.915 155.1C221.233 155.269 220.544 155.425 219.839 155.453C219.196 155.478 218.767 154.874 218.978 154.274C219.099 153.931 219.364 153.736 219.718 153.699C220.176 153.651 220.62 153.55 221.071 153.476C221.214 153.453 221.348 153.403 221.485 153.358C221.651 153.304 221.83 153.301 221.999 153.349C222.167 153.397 222.317 153.495 222.429 153.629C222.655 153.895 222.7 154.266 222.544 154.581ZM224.535 152.784C224.65 152.551 224.835 152.401 225.083 152.327C225.456 152.216 225.834 152.124 226.216 152.05C226.39 152.019 226.559 151.965 226.719 151.888C226.834 151.83 226.961 151.796 227.09 151.789C227.219 151.782 227.348 151.801 227.469 151.847C227.591 151.892 227.701 151.961 227.794 152.051C227.887 152.141 227.961 152.249 228.011 152.368C228.213 152.856 227.971 153.392 227.458 153.584C227.387 153.612 227.313 153.633 227.239 153.648C226.672 153.748 226.111 153.875 225.552 154.007C225.205 154.089 224.896 154.009 224.655 153.735C224.419 153.466 224.376 153.107 224.535 152.784ZM225.516 155.154C225.889 155.351 226.036 155.652 226.041 156.025C226.046 156.393 225.878 156.677 225.554 156.857C225.435 156.922 225.308 156.97 225.176 157.001C224.714 157.113 224.255 157.227 223.794 157.338C223.499 157.408 223.218 157.376 222.975 157.182C222.708 156.967 222.593 156.683 222.656 156.346C222.72 155.992 222.94 155.753 223.286 155.647C223.554 155.568 223.825 155.498 224.099 155.438C224.305 155.39 224.498 155.331 224.679 155.203C224.948 155.01 225.249 155.025 225.516 155.154ZM231.004 156.122C230.913 156.309 230.775 156.457 230.584 156.546C230.477 156.598 230.366 156.639 230.252 156.67C229.866 156.765 229.483 156.872 229.101 156.978C228.521 157.138 227.991 156.767 227.96 156.192C227.94 155.832 228.142 155.508 228.496 155.345C228.759 155.223 229.038 155.153 229.318 155.086C229.468 155.051 229.606 155.003 229.74 154.923C230.101 154.707 230.508 154.759 230.815 155.047C231.106 155.32 231.183 155.756 231.004 156.122ZM214.673 151.455C214.775 151.268 214.912 151.134 215.093 151.051C215.216 150.992 215.348 150.955 215.483 150.94C215.844 150.906 216.207 150.86 216.57 150.844C217.228 150.816 217.676 151.399 217.469 152.014C217.36 152.336 217.119 152.526 216.788 152.592C216.682 152.613 216.57 152.612 216.461 152.626C216.168 152.66 215.872 152.673 215.578 152.72C215.232 152.776 214.943 152.647 214.741 152.358C214.536 152.071 214.533 151.761 214.673 151.455ZM224.911 147.913C225.256 148.091 225.438 148.407 225.411 148.757C225.382 149.134 225.184 149.385 224.837 149.522C224.759 149.555 224.676 149.574 224.591 149.58C224.27 149.596 223.949 149.605 223.628 149.607C223.448 149.607 223.272 149.549 223.128 149.442C222.83 149.226 222.697 148.872 222.784 148.524C222.873 148.171 223.151 147.9 223.508 147.866C223.861 147.833 224.218 147.833 224.573 147.825C224.702 147.822 224.824 147.862 224.911 147.913Z" fill="#E1E4E5"/>
<path d="M54.1918 78.3286C54.1918 78.3286 51.7516 68.9674 55.5191 64.7382C59.5656 60.1892 62.5891 64.6781 59.4065 71.0846C57.224 75.4829 54.1918 78.3286 54.1918 78.3286ZM52.6223 88.6978C52.6223 88.6978 44.1879 83.9377 43.7889 78.3046C43.3562 72.2528 48.6977 73.2112 51.0771 79.941C52.7012 84.5556 52.6223 88.6978 52.6223 88.6978ZM52.6356 94.8493C52.6356 94.8493 61.7837 91.5781 63.1717 86.1005C64.6665 80.2097 59.2309 80.2569 55.706 86.4827C53.2936 90.7523 52.6356 94.8493 52.6356 94.8493ZM53.0876 99.2964C53.0876 99.2964 43.4125 98.5181 40.6765 93.5873C37.7335 88.2817 42.997 86.9172 47.9899 92.0143C51.4114 95.503 53.0876 99.2964 53.0876 99.2964Z" fill="#0F8B8D"/>
<path d="M56.1158 69.9956C54.2288 75.8615 52.7981 81.8884 52.3393 88.0372C51.8898 94.09 52.4107 100.161 53.6022 106.1C53.9123 107.658 54.2712 109.21 54.6611 110.747L55.2489 110.442C54.223 106.351 53.4325 102.197 53.0587 97.9898C52.5352 92.1413 52.8805 86.2534 54.0109 80.4926C54.697 77.0057 55.6408 73.5745 56.7279 70.1928C56.8556 69.7951 56.2406 69.6053 56.1158 69.9956Z" fill="#173637"/>
<path d="M28.0261 97.7507C28.0261 97.7507 23.4577 89.2234 26.1281 84.2285C28.9938 78.8567 32.9863 82.511 31.3955 89.4856C30.3059 94.2729 28.0264 97.7507 28.0264 97.7507H28.0261ZM28.9334 108.199C28.9334 108.199 19.6171 105.55 17.9077 100.168C16.0676 94.3867 21.4847 94.065 25.3767 100.049C28.0377 104.154 28.9334 108.199 28.9334 108.199ZM30.3896 114.175C30.3896 114.175 38.5147 108.849 38.579 103.199C38.6498 97.1214 33.3772 98.4429 31.4114 105.322C30.0679 110.039 30.3896 114.175 30.3896 114.175ZM31.8721 118.392C31.8721 118.392 22.2843 119.906 18.468 115.755C14.3623 111.288 19.159 108.726 25.2082 112.51C29.3527 115.098 31.8721 118.392 31.8721 118.392Z" fill="#0F8B8D"/>
<path d="M27.9411 89.1992C27.4829 95.3438 27.5062 101.538 28.5027 107.623C29.4856 113.612 31.4169 119.392 33.9683 124.885C34.6375 126.326 35.3442 127.75 36.0878 129.154L36.588 128.72C34.6308 124.984 32.8874 121.131 31.5372 117.129C29.656 111.567 28.6104 105.762 28.3575 99.8967C28.2065 96.3465 28.3187 92.7895 28.5822 89.2474C28.613 88.8306 27.9708 88.7905 27.9411 89.1992Z" fill="#173637"/>
<path d="M255.02 110.399C255.02 110.399 253.55 103.233 256.564 100.189C259.8 96.9147 261.905 100.425 259.247 105.136C257.423 108.371 255.02 110.399 255.02 110.399ZM253.422 118.167C253.422 118.167 247.242 114.236 247.165 109.967C247.079 105.379 251.075 106.316 252.604 111.493C253.646 115.042 253.422 118.167 253.422 118.167ZM253.187 122.813C253.187 122.813 260.226 120.707 261.492 116.626C262.856 112.237 258.749 112.056 255.839 116.617C253.847 119.746 253.187 122.813 253.187 122.813ZM253.351 126.189C253.351 126.189 246.076 125.216 244.206 121.384C242.195 117.26 246.224 116.439 249.792 120.487C252.237 123.258 253.351 126.189 253.351 126.189Z" fill="#0F8B8D"/>
<path d="M256.805 104.183C255.146 108.537 253.826 113.032 253.235 117.657C252.654 122.21 252.805 126.815 253.469 131.348C253.643 132.537 253.848 133.721 254.083 134.899L254.539 134.692C253.927 131.562 253.496 128.394 253.381 125.201C253.219 120.764 253.714 116.331 254.797 112.026C255.454 109.42 256.304 106.867 257.259 104.356C257.371 104.061 256.914 103.893 256.805 104.183Z" fill="#173637"/>
<path d="M237.09 87.7112C237.09 87.7112 235.62 80.5449 238.633 77.5013C241.87 74.2269 243.975 77.737 241.316 82.4487C239.493 85.683 237.09 87.7112 237.09 87.7112ZM235.492 95.4793C235.492 95.4793 229.312 91.5489 229.235 87.2789C229.149 82.6915 233.145 83.6278 234.673 88.8051C235.716 92.3546 235.492 95.4793 235.492 95.4793ZM235.257 100.126C235.257 100.126 242.295 98.0194 243.562 93.938C244.925 89.5491 240.818 89.3683 237.909 93.9296C235.917 97.0578 235.257 100.126 235.257 100.126ZM235.421 103.502C235.421 103.502 228.146 102.529 226.276 98.6962C224.265 94.5724 228.294 93.7514 231.862 97.7992C234.306 100.57 235.421 103.502 235.421 103.502Z" fill="#0F8B8D"/>
<path d="M238.874 81.4952C237.215 85.8499 235.895 90.3442 235.304 94.9695C234.723 99.5224 234.875 104.128 235.538 108.66C235.71 109.849 235.92 111.036 236.153 112.212L236.609 112.005C235.997 108.875 235.565 105.706 235.451 102.514C235.288 98.0764 235.783 93.6438 236.866 89.3383C237.524 86.7326 238.373 84.1792 239.328 81.6685C239.441 81.373 238.984 81.2055 238.874 81.4952Z" fill="#173637"/>
<path d="M164.12 164.179C163.808 164.025 163.612 163.686 163.638 163.349C163.651 163.17 163.718 162.999 163.83 162.859C163.943 162.72 164.095 162.618 164.267 162.567C164.364 162.539 164.467 162.529 164.568 162.518C165.174 162.449 165.781 162.391 166.378 162.25C166.506 162.217 166.639 162.212 166.769 162.234C166.899 162.256 167.024 162.305 167.134 162.377C167.443 162.575 167.581 162.865 167.543 163.221C167.503 163.58 167.294 163.826 166.955 163.954C166.891 163.978 166.825 163.995 166.758 164.004C166.062 164.107 165.368 164.221 164.665 164.273C164.473 164.288 164.291 164.265 164.12 164.179ZM166.923 166.657C166.793 166.925 166.571 167.105 166.293 167.175C165.612 167.344 164.923 167.501 164.218 167.529C163.575 167.554 163.146 166.95 163.357 166.349C163.478 166.006 163.743 165.811 164.097 165.774C164.555 165.727 164.999 165.626 165.45 165.552C165.593 165.528 165.727 165.478 165.864 165.434C166.03 165.379 166.209 165.376 166.377 165.424C166.546 165.472 166.696 165.57 166.808 165.704C167.034 165.97 167.079 166.341 166.923 166.657ZM168.914 164.86C169.029 164.626 169.214 164.477 169.462 164.403C169.835 164.292 170.213 164.199 170.595 164.126C170.769 164.095 170.938 164.04 171.098 163.963C171.213 163.905 171.339 163.871 171.469 163.864C171.598 163.857 171.727 163.877 171.848 163.922C171.969 163.967 172.08 164.037 172.173 164.126C172.266 164.216 172.34 164.324 172.39 164.444C172.592 164.932 172.35 165.467 171.837 165.659C171.766 165.687 171.692 165.709 171.617 165.724C171.051 165.823 170.49 165.95 169.931 166.083C169.584 166.164 169.275 166.084 169.034 165.81C168.798 165.542 168.755 165.182 168.914 164.86ZM169.894 167.23C170.268 167.427 170.415 167.728 170.42 168.1C170.425 168.468 170.257 168.752 169.933 168.932C169.814 168.997 169.687 169.046 169.555 169.077C169.093 169.188 168.634 169.303 168.172 169.414C167.878 169.483 167.597 169.451 167.354 169.257C167.087 169.043 166.972 168.758 167.034 168.421C167.099 168.067 167.318 167.828 167.664 167.723C167.932 167.642 168.203 167.576 168.477 167.513C168.684 167.466 168.877 167.407 169.058 167.279C169.327 167.086 169.628 167.1 169.894 167.23ZM175.384 168.197C175.292 168.385 175.154 168.533 174.963 168.622C174.856 168.673 174.745 168.715 174.631 168.745C174.245 168.841 173.862 168.947 173.48 169.053C172.9 169.214 172.37 168.842 172.339 168.267C172.319 167.907 172.522 167.583 172.875 167.42C173.138 167.299 173.417 167.228 173.697 167.162C173.847 167.126 173.985 167.079 174.119 166.999C174.48 166.782 174.887 166.835 175.194 167.122C175.485 167.395 175.562 167.832 175.384 168.197ZM159.052 163.53C159.154 163.343 159.291 163.21 159.472 163.126C159.595 163.068 159.727 163.03 159.862 163.015C160.223 162.981 160.586 162.936 160.949 162.92C161.607 162.892 162.055 163.475 161.847 164.09C161.739 164.412 161.498 164.601 161.167 164.667C161.061 164.688 160.949 164.688 160.84 164.701C160.547 164.735 160.251 164.749 159.957 164.795C159.61 164.851 159.322 164.722 159.12 164.434C158.915 164.147 158.911 163.836 159.052 163.53ZM169.289 159.989C169.635 160.166 169.817 160.482 169.79 160.832C169.761 161.209 169.563 161.461 169.216 161.597C169.138 161.63 169.055 161.65 168.97 161.655C168.648 161.67 168.328 161.682 168.006 161.683C167.826 161.683 167.651 161.625 167.507 161.518C167.209 161.301 167.076 160.947 167.163 160.6C167.252 160.247 167.53 159.976 167.887 159.942C168.24 159.908 168.597 159.908 168.951 159.901C169.081 159.897 169.203 159.937 169.289 159.989ZM111.06 158.69C110.748 158.536 110.552 158.197 110.578 157.86C110.591 157.681 110.658 157.51 110.77 157.371C110.883 157.231 111.035 157.129 111.207 157.078C111.304 157.05 111.407 157.04 111.508 157.029C112.114 156.96 112.721 156.902 113.318 156.761C113.446 156.728 113.579 156.723 113.709 156.745C113.839 156.767 113.963 156.816 114.074 156.888C114.383 157.086 114.521 157.376 114.483 157.733C114.443 158.091 114.233 158.337 113.895 158.465C113.831 158.489 113.765 158.506 113.698 158.515C113.002 158.618 112.308 158.732 111.606 158.784C111.413 158.799 111.231 158.776 111.06 158.69ZM113.863 161.168C113.733 161.436 113.511 161.616 113.233 161.686C112.552 161.855 111.863 162.012 111.158 162.04C110.515 162.064 110.086 161.461 110.297 160.861C110.418 160.517 110.683 160.322 111.037 160.285C111.495 160.238 111.939 160.137 112.39 160.063C112.533 160.039 112.667 159.989 112.804 159.945C112.97 159.89 113.149 159.887 113.318 159.935C113.486 159.984 113.636 160.081 113.748 160.215C113.974 160.482 114.019 160.852 113.863 161.168ZM115.854 159.371C115.969 159.137 116.154 158.988 116.402 158.914C116.775 158.803 117.153 158.71 117.535 158.637C117.709 158.606 117.878 158.551 118.038 158.474C118.153 158.416 118.28 158.382 118.409 158.375C118.538 158.368 118.667 158.388 118.788 158.433C118.91 158.478 119.02 158.548 119.113 158.638C119.206 158.727 119.28 158.835 119.33 158.955C119.532 159.443 119.29 159.978 118.777 160.17C118.706 160.198 118.632 160.22 118.557 160.235C117.991 160.334 117.43 160.462 116.871 160.594C116.524 160.675 116.215 160.595 115.974 160.322C115.738 160.053 115.695 159.693 115.854 159.371ZM116.834 161.741C117.208 161.938 117.355 162.239 117.36 162.611C117.365 162.979 117.197 163.263 116.873 163.443C116.754 163.508 116.627 163.557 116.495 163.588C116.033 163.699 115.574 163.814 115.112 163.925C114.818 163.995 114.537 163.962 114.294 163.768C114.027 163.554 113.912 163.269 113.974 162.932C114.039 162.578 114.258 162.339 114.604 162.234C114.872 162.153 115.143 162.087 115.417 162.024C115.624 161.977 115.817 161.918 115.998 161.79C116.267 161.597 116.568 161.611 116.834 161.741ZM122.323 162.708C122.232 162.896 122.094 163.044 121.903 163.133C121.796 163.184 121.685 163.226 121.571 163.256C121.185 163.352 120.802 163.458 120.42 163.564C119.84 163.725 119.31 163.353 119.279 162.779C119.259 162.418 119.461 162.094 119.815 161.931C120.078 161.809 120.357 161.739 120.637 161.673C120.787 161.637 120.925 161.59 121.059 161.51C121.42 161.293 121.827 161.346 122.134 161.633C122.425 161.907 122.502 162.342 122.323 162.708ZM105.992 158.041C106.094 157.854 106.231 157.721 106.412 157.638C106.535 157.579 106.667 157.541 106.802 157.526C107.163 157.492 107.526 157.447 107.889 157.431C108.547 157.403 108.995 157.986 108.787 158.6C108.679 158.923 108.438 159.112 108.107 159.179C108.001 159.2 107.889 159.199 107.78 159.212C107.487 159.246 107.191 159.26 106.897 159.307C106.551 159.363 106.262 159.233 106.06 158.945C105.855 158.658 105.851 158.347 105.992 158.041ZM116.229 154.5C116.575 154.677 116.757 154.993 116.73 155.343C116.701 155.72 116.503 155.972 116.156 156.108C116.078 156.141 115.995 156.161 115.91 156.166C115.588 156.182 115.268 156.193 114.946 156.194C114.765 156.195 114.597 156.136 114.447 156.029C114.149 155.812 114.016 155.458 114.103 155.111C114.192 154.758 114.47 154.487 114.827 154.453C115.18 154.419 115.537 154.419 115.891 154.412C116.021 154.408 116.143 154.448 116.229 154.5ZM75.9305 147.712C75.6185 147.558 75.4222 147.219 75.4487 146.882C75.4616 146.703 75.5287 146.532 75.6411 146.393C75.7536 146.253 75.906 146.151 76.078 146.1C76.175 146.072 76.2778 146.062 76.379 146.051C76.9852 145.982 77.5921 145.924 78.188 145.783C78.3161 145.75 78.4495 145.745 78.5797 145.767C78.7099 145.789 78.8342 145.838 78.9446 145.91C79.2541 146.108 79.3918 146.397 79.3533 146.755C79.3142 147.113 79.104 147.359 78.7655 147.487C78.7019 147.511 78.6357 147.528 78.5683 147.537C77.8731 147.64 77.1786 147.754 76.4763 147.806C76.2842 147.82 76.1022 147.798 75.9305 147.712ZM78.7335 150.19C78.6032 150.458 78.3814 150.639 78.1043 150.708C77.4224 150.877 76.7337 151.034 76.0288 151.062C75.3854 151.086 74.9563 150.483 75.1675 149.883C75.2881 149.539 75.5535 149.345 75.9079 149.307C76.3654 149.26 76.809 149.159 77.2604 149.085C77.4043 149.061 77.5378 149.011 77.6746 148.967C77.841 148.913 78.02 148.909 78.1883 148.958C78.3566 149.006 78.5067 149.103 78.619 149.238C78.845 149.504 78.889 149.874 78.7335 150.19ZM80.7249 148.393C80.8397 148.159 81.0253 148.01 81.2726 147.936C81.6455 147.825 82.0238 147.732 82.4059 147.659C82.5801 147.628 82.7491 147.573 82.9084 147.496C83.024 147.438 83.1503 147.405 83.2794 147.397C83.4086 147.39 83.5378 147.41 83.659 147.455C83.7802 147.5 83.8909 147.57 83.984 147.66C84.0772 147.749 84.1508 147.857 84.2004 147.977C84.4025 148.465 84.16 149 83.6475 149.192C83.5764 149.22 83.5029 149.242 83.428 149.257C82.8618 149.356 82.3008 149.483 81.7415 149.616C81.3945 149.697 81.0857 149.617 80.8445 149.344C80.6092 149.075 80.5658 148.715 80.7249 148.393ZM81.7053 150.763C82.0784 150.96 82.2252 151.261 82.2304 151.633C82.2352 152.002 82.0677 152.285 81.7437 152.465C81.6247 152.53 81.4974 152.579 81.3654 152.61C80.9037 152.721 80.4446 152.836 79.9829 152.947C79.6889 153.016 79.4073 152.984 79.1645 152.79C78.8974 152.576 78.783 152.291 78.8451 151.955C78.9097 151.6 79.1293 151.361 79.4752 151.256C79.7437 151.177 80.0147 151.107 80.2878 151.046C80.4944 150.999 80.6874 150.94 80.8685 150.812C81.1372 150.619 81.4382 150.633 81.7053 150.763ZM87.1942 151.73C87.1023 151.918 86.9646 152.066 86.7732 152.155C86.6669 152.207 86.5559 152.248 86.4418 152.278C86.0557 152.374 85.6732 152.48 85.2904 152.586C84.7106 152.747 84.1804 152.375 84.149 151.801C84.1296 151.44 84.332 151.116 84.6857 150.953C84.9483 150.832 85.2283 150.761 85.508 150.695C85.6574 150.659 85.7961 150.612 85.9296 150.532C86.2908 150.315 86.6982 150.368 87.005 150.655C87.2957 150.928 87.3726 151.365 87.1942 151.73ZM70.8623 147.063C70.9644 146.876 71.1012 146.743 71.2832 146.66C71.4058 146.601 71.5374 146.563 71.6725 146.548C72.034 146.515 72.3968 146.469 72.7599 146.453C73.4179 146.425 73.8657 147.008 73.6581 147.623C73.5501 147.945 73.3086 148.134 72.9778 148.2C72.8715 148.222 72.7593 148.221 72.6506 148.234C72.3574 148.268 72.0615 148.282 71.7682 148.328C71.4213 148.384 71.1332 148.255 70.9308 147.967C70.7261 147.68 70.7219 147.369 70.8623 147.063ZM81.1003 143.522C81.4453 143.699 81.6273 144.015 81.6008 144.366C81.5717 144.742 81.3735 144.994 81.0266 145.131C80.9486 145.164 80.8656 145.183 80.7812 145.188C80.4588 145.203 80.1384 145.215 79.817 145.216C79.637 145.216 79.4619 145.158 79.3171 145.051C79.0196 144.834 78.8864 144.48 78.9731 144.133C79.0627 143.78 79.3407 143.509 79.6977 143.475C80.0504 143.441 80.4074 143.441 80.7621 143.434C80.8911 143.43 81.0136 143.47 81.1003 143.522ZM40.4353 163.081C40.1233 162.927 39.927 162.588 39.9535 162.251C39.9664 162.072 40.0335 161.902 40.1459 161.762C40.2583 161.622 40.4107 161.52 40.5827 161.469C40.6797 161.441 40.7826 161.431 40.8838 161.42C41.49 161.351 42.0969 161.293 42.6928 161.152C42.8209 161.12 42.9543 161.114 43.0845 161.136C43.2147 161.158 43.339 161.207 43.4494 161.28C43.7588 161.477 43.8966 161.767 43.8581 162.124C43.819 162.483 43.6088 162.728 43.2706 162.856C43.2069 162.88 43.1407 162.897 43.0734 162.907C42.3779 163.009 41.6834 163.123 40.9811 163.175C40.789 163.19 40.607 163.167 40.4353 163.081ZM43.2383 165.559C43.108 165.828 42.8862 166.008 42.6091 166.077C41.9272 166.246 41.2385 166.403 40.5339 166.431C39.8902 166.456 39.4611 165.852 39.6722 165.252C39.7928 164.908 40.0583 164.714 40.4127 164.676C40.8702 164.629 41.3138 164.528 41.7655 164.454C41.9091 164.43 42.0426 164.38 42.1794 164.336C42.3458 164.282 42.5247 164.278 42.6931 164.327C42.8614 164.375 43.0115 164.472 43.1238 164.607C43.3498 164.873 43.3938 165.244 43.2383 165.559ZM45.2297 163.762C45.3445 163.529 45.5301 163.379 45.7774 163.305C46.1503 163.194 46.5285 163.101 46.9107 163.028C47.0849 162.997 47.254 162.942 47.4132 162.865C47.5288 162.807 47.6551 162.774 47.7843 162.767C47.9134 162.76 48.0426 162.779 48.1639 162.824C48.2851 162.869 48.3957 162.939 48.4889 163.029C48.582 163.119 48.6556 163.226 48.7052 163.346C48.9073 163.834 48.6648 164.369 48.1523 164.561C48.0812 164.589 48.0077 164.611 47.9328 164.626C47.3666 164.725 46.8056 164.853 46.2463 164.985C45.8993 165.066 45.5909 164.987 45.3493 164.713C45.1139 164.444 45.0706 164.084 45.2297 163.762ZM46.21 166.132C46.5832 166.329 46.73 166.63 46.7351 167.003C46.74 167.371 46.5725 167.654 46.2485 167.834C46.1295 167.899 46.0022 167.948 45.8702 167.979C45.4085 168.09 44.9494 168.205 44.488 168.316C44.1937 168.386 43.9124 168.353 43.6693 168.159C43.4022 167.945 43.2878 167.66 43.3498 167.324C43.4145 166.969 43.634 166.73 43.98 166.625C44.2477 166.544 44.519 166.478 44.7929 166.415C44.9995 166.368 45.1922 166.309 45.3736 166.181C45.6423 165.988 45.943 166.002 46.21 166.132ZM51.6989 167.099C51.6071 167.287 51.4694 167.435 51.278 167.524C51.1717 167.576 51.0607 167.617 50.9465 167.647C50.5605 167.743 50.178 167.849 49.7955 167.955C49.2154 168.116 48.6852 167.744 48.6538 167.17C48.6344 166.809 48.8368 166.486 49.1905 166.322C49.4534 166.201 49.7331 166.131 50.0128 166.064C50.1625 166.028 50.3009 165.981 50.4344 165.901C50.7959 165.684 51.203 165.737 51.5098 166.024C51.8005 166.298 51.8778 166.734 51.6989 167.099ZM35.3671 162.433C35.4692 162.245 35.606 162.112 35.788 162.029C35.9106 161.97 36.0422 161.932 36.1773 161.917C36.5388 161.884 36.9016 161.838 37.2647 161.822C37.9227 161.794 38.3705 162.377 38.1629 162.992C38.0549 163.314 37.8134 163.503 37.4826 163.57C37.3766 163.591 37.2644 163.59 37.1554 163.604C36.8621 163.638 36.5663 163.651 36.273 163.698C35.9261 163.754 35.638 163.624 35.4356 163.336C35.2309 163.049 35.2267 162.738 35.3671 162.433ZM45.6051 158.891C45.9501 159.068 46.1321 159.384 46.1056 159.735C46.0765 160.111 45.8783 160.363 45.5317 160.5C45.4541 160.531 45.3684 160.554 45.286 160.558C44.9636 160.573 44.6432 160.584 44.3218 160.585C44.1407 160.586 43.9726 160.527 43.8219 160.42C43.5244 160.203 43.3912 159.849 43.4779 159.502C43.5674 159.149 43.8455 158.878 44.2025 158.844C44.5552 158.81 44.9122 158.81 45.2669 158.803C45.3959 158.8 45.5184 158.839 45.6051 158.891ZM248.65 167.106C248.338 166.952 248.141 166.614 248.168 166.276C248.181 166.097 248.248 165.926 248.361 165.787C248.473 165.647 248.625 165.545 248.798 165.494C248.894 165.466 248.997 165.456 249.098 165.445C249.704 165.376 250.311 165.319 250.907 165.177C251.035 165.145 251.169 165.139 251.299 165.161C251.429 165.183 251.553 165.232 251.664 165.305C251.973 165.502 252.111 165.792 252.073 166.149C252.033 166.508 251.823 166.753 251.485 166.882C251.421 166.905 251.355 166.922 251.288 166.932C250.592 167.034 249.898 167.148 249.195 167.2C249.003 167.215 248.821 167.192 248.65 167.106ZM251.453 169.584C251.323 169.853 251.101 170.033 250.824 170.102C250.142 170.271 249.453 170.429 248.748 170.456C248.105 170.481 247.676 169.877 247.887 169.277C248.008 168.934 248.273 168.739 248.627 168.702C249.085 168.654 249.528 168.553 249.98 168.479C250.123 168.456 250.257 168.406 250.394 168.361C250.56 168.307 250.739 168.303 250.908 168.352C251.076 168.4 251.226 168.498 251.338 168.632C251.564 168.898 251.609 169.269 251.453 169.584ZM253.444 167.787C253.559 167.554 253.744 167.404 253.992 167.33C254.365 167.219 254.743 167.127 255.125 167.053C255.299 167.022 255.468 166.967 255.628 166.89C255.743 166.832 255.87 166.799 255.999 166.792C256.128 166.785 256.257 166.804 256.378 166.849C256.5 166.895 256.61 166.964 256.703 167.054C256.796 167.144 256.87 167.252 256.92 167.371C257.122 167.859 256.879 168.395 256.367 168.587C256.296 168.614 256.222 168.636 256.147 168.651C255.581 168.75 255.02 168.878 254.461 169.01C254.114 169.092 253.805 169.012 253.564 168.738C253.328 168.469 253.285 168.11 253.444 167.787ZM254.424 170.157C254.798 170.354 254.945 170.655 254.95 171.028C254.955 171.396 254.787 171.68 254.463 171.86C254.344 171.925 254.217 171.973 254.085 172.004C253.623 172.115 253.164 172.23 252.702 172.341C252.408 172.411 252.127 172.379 251.884 172.185C251.617 171.97 251.502 171.685 251.565 171.349C251.629 170.994 251.848 170.755 252.195 170.65C252.463 170.571 252.734 170.501 253.007 170.441C253.214 170.393 253.407 170.335 253.588 170.206C253.857 170.013 254.158 170.028 254.424 170.157ZM259.913 171.124C259.822 171.312 259.684 171.46 259.492 171.549C259.386 171.601 259.275 171.642 259.161 171.672C258.775 171.768 258.392 171.875 258.01 171.981C257.43 172.141 256.9 171.769 256.868 171.195C256.849 170.834 257.051 170.511 257.405 170.347C257.668 170.226 257.948 170.155 258.227 170.089C258.377 170.054 258.515 170.006 258.649 169.926C259.01 169.709 259.417 169.762 259.724 170.05C260.015 170.323 260.092 170.759 259.913 171.124ZM243.582 166.458C243.684 166.271 243.821 166.137 244.002 166.054C244.125 165.995 244.257 165.957 244.392 165.943C244.753 165.909 245.116 165.863 245.479 165.847C246.137 165.819 246.585 166.402 246.378 167.017C246.269 167.339 246.028 167.529 245.697 167.595C245.591 167.616 245.479 167.615 245.37 167.629C245.077 167.663 244.781 167.676 244.487 167.723C244.141 167.779 243.852 167.65 243.65 167.361C243.445 167.074 243.441 166.764 243.582 166.458ZM253.82 162.917C254.165 163.093 254.347 163.41 254.32 163.76C254.291 164.137 254.093 164.388 253.746 164.525C253.668 164.558 253.585 164.577 253.5 164.583C253.178 164.598 252.858 164.61 252.537 164.611C252.357 164.61 252.181 164.552 252.037 164.445C251.739 164.228 251.606 163.875 251.693 163.527C251.782 163.174 252.06 162.903 252.417 162.869C252.77 162.835 253.127 162.835 253.481 162.828C253.611 162.825 253.733 162.865 253.82 162.917Z" fill="#E1E4E5"/>
<path d="M72.6696 90.7798C72.6696 90.7798 68.734 75.682 74.8101 68.8617C81.3359 61.5246 86.2128 68.7643 81.0795 79.0968C77.5594 86.1901 72.6696 90.7798 72.6696 90.7798ZM70.1386 107.503C70.1386 107.503 56.5353 99.8257 55.8919 90.741C55.1941 80.9808 63.8087 82.5264 67.646 93.3803C70.2653 100.823 70.1386 107.503 70.1386 107.503ZM70.1602 117.424C70.1602 117.424 84.9139 112.148 87.1527 103.314C89.5635 93.8133 80.7969 93.8896 75.1121 103.931C71.2214 110.817 70.1602 117.424 70.1602 117.424ZM70.889 124.596C70.889 124.596 55.285 123.341 50.8724 115.389C46.1259 106.832 54.615 104.631 62.6676 112.851C68.1856 118.478 70.889 124.596 70.889 124.596Z" fill="#0F8B8D"/>
<path d="M75.7728 77.3403C72.7296 86.8011 70.4223 96.5211 69.6822 106.438C68.9569 116.199 69.7973 125.991 71.7192 135.569C72.2187 138.082 72.7978 140.586 73.4267 143.063L74.3747 142.573C72.7199 135.975 71.445 129.275 70.8423 122.489C69.9981 113.057 70.5548 103.56 72.3781 94.2697C73.4846 88.6463 75.0068 83.1128 76.7599 77.6588C76.9656 77.0167 75.9742 76.7111 75.7728 77.3403Z" fill="#173637"/>
<path d="M97.1872 99.5617C97.1872 99.5617 93.2516 84.4643 99.3277 77.6439C105.854 70.3068 110.73 77.5466 105.597 87.879C102.077 94.9723 97.1872 99.5617 97.1872 99.5617ZM94.6562 116.285C94.6562 116.285 81.0529 108.608 80.4094 99.5232C79.7117 89.7631 88.3266 91.3086 92.1636 102.163C94.7829 109.605 94.6562 116.285 94.6562 116.285ZM94.6778 126.206C94.6778 126.206 109.432 120.93 111.67 112.096C114.081 102.596 105.315 102.672 99.6297 112.713C95.739 119.599 94.6778 126.206 94.6778 126.206ZM95.4066 133.378C95.4066 133.378 79.8025 132.123 75.39 124.171C70.6435 115.614 79.1326 113.414 87.1852 121.634C92.7032 127.26 95.4066 133.378 95.4066 133.378Z" fill="#0F8B8D"/>
<path d="M100.29 86.1228C97.2472 95.5832 94.9395 105.304 94.1997 115.22C93.4745 124.982 94.3149 134.773 96.2364 144.351C96.7363 146.865 97.3151 149.368 97.9443 151.846L98.8923 151.355C97.2375 144.757 95.9622 138.057 95.3599 131.271C94.5156 121.839 95.0724 112.343 96.8954 103.052C98.0021 97.4288 99.5244 91.895 101.278 86.441C101.483 85.7992 100.492 85.4936 100.29 86.1228Z" fill="#173637"/>
<path d="M238.621 123.338C238.621 123.338 236.181 113.977 239.948 109.748C243.994 105.198 247.018 109.687 243.835 116.094C241.653 120.492 238.621 123.338 238.621 123.338ZM237.052 133.707C237.052 133.707 228.617 128.947 228.218 123.314C227.785 117.262 233.127 118.221 235.506 124.95C237.13 129.565 237.052 133.707 237.052 133.707ZM237.065 139.859C237.065 139.859 246.213 136.587 247.601 131.11C249.096 125.219 243.66 125.266 240.135 131.492C237.723 135.762 237.065 139.859 237.065 139.859ZM237.517 144.306C237.517 144.306 227.842 143.527 225.106 138.596C222.163 133.291 227.426 131.926 232.419 137.023C235.841 140.512 237.517 144.306 237.517 144.306Z" fill="#0F8B8D"/>
<path d="M240.545 115.005C238.658 120.871 237.227 126.898 236.769 133.047C236.319 139.1 236.84 145.171 238.032 151.109C238.341 152.668 238.7 154.22 239.09 155.756L239.678 155.452C238.652 151.361 237.861 147.207 237.488 142.999C236.964 137.151 237.31 131.263 238.44 125.502C239.126 122.015 240.07 118.584 241.157 115.202C241.285 114.804 240.67 114.615 240.545 115.005Z" fill="#173637"/>
<path d="M260.943 132.486C260.943 132.486 258.503 123.125 262.27 118.896C266.316 114.347 269.34 118.836 266.157 125.242C263.975 129.641 260.943 132.486 260.943 132.486ZM259.373 142.856C259.373 142.856 250.939 138.095 250.54 132.462C250.107 126.411 255.449 127.369 257.828 134.099C259.452 138.713 259.373 142.856 259.373 142.856ZM259.387 149.007C259.387 149.007 268.535 145.736 269.923 140.258C271.418 134.367 265.982 134.415 262.457 140.64C260.045 144.91 259.387 149.007 259.387 149.007ZM259.839 153.454C259.839 153.454 250.163 152.676 247.427 147.745C244.484 142.439 249.748 141.075 254.741 146.172C258.162 149.661 259.839 153.454 259.839 153.454Z" fill="#0F8B8D"/>
<path d="M262.867 124.153C260.98 130.019 259.549 136.046 259.09 142.195C258.641 148.248 259.162 154.319 260.353 160.258C260.666 161.816 261.019 163.365 261.412 164.905L262 164.6C260.974 160.509 260.183 156.355 259.809 152.147C259.286 146.299 259.631 140.411 260.762 134.65C261.448 131.163 262.392 127.732 263.479 124.351C263.606 123.953 262.992 123.763 262.867 124.153Z" fill="#173637"/>
<path d="M217.634 98.8794C217.634 98.8794 214.41 86.5126 219.388 80.9257C224.733 74.9156 228.728 80.8458 224.523 89.3097C221.64 95.12 217.634 98.8794 217.634 98.8794ZM215.561 112.578C215.561 112.578 204.418 106.29 203.891 98.848C203.319 90.853 210.376 92.1188 213.519 101.01C215.665 107.106 215.561 112.578 215.561 112.578ZM215.578 120.705C215.578 120.705 227.664 116.383 229.498 109.147C231.473 101.365 224.292 101.427 219.635 109.652C216.448 115.293 215.578 120.705 215.578 120.705ZM216.175 126.58C216.175 126.58 203.394 125.552 199.779 119.038C195.891 112.029 202.845 110.226 209.441 116.96C213.961 121.569 216.175 126.58 216.175 126.58Z" fill="#0F8B8D"/>
<path d="M220.176 87.8713C217.683 95.6206 215.793 103.583 215.187 111.706C214.593 119.702 215.281 127.723 216.855 135.568C217.264 137.627 217.739 139.678 218.254 141.707L219.03 141.305C217.675 135.901 216.631 130.413 216.137 124.854C215.445 117.128 215.902 109.349 217.395 101.738C218.302 97.1322 219.548 92.5994 220.984 88.1319C221.153 87.6062 220.341 87.3556 220.176 87.8713Z" fill="#173637"/>
<path d="M43.9101 121.532C43.9101 121.532 37.0926 110.722 40.1442 103.891C43.4189 96.5438 49.022 100.986 47.5777 110.326C46.5892 116.736 43.9101 121.532 43.9101 121.532ZM46.0826 135.216C46.0826 135.216 33.5582 132.597 30.8025 125.664C27.8369 118.218 34.9453 117.287 40.6334 124.809C44.5244 129.969 46.0826 135.216 46.0826 135.216ZM48.5609 142.956C48.5609 142.956 58.7698 135.177 58.3262 127.725C57.8512 119.71 51.0267 121.944 49.0792 131.193C47.75 137.534 48.5609 142.956 48.5609 142.956ZM50.9086 148.374C50.9086 148.374 38.4157 151.265 32.9982 146.151C27.1701 140.649 33.2514 136.825 41.5769 141.245C47.2805 144.268 50.9086 148.374 50.9086 148.374Z" fill="#0F8B8D"/>
<path d="M42.9985 110.271C42.9697 118.412 43.5796 126.572 45.462 134.497C47.3173 142.298 50.4022 149.733 54.2783 156.734C55.292 158.572 56.3648 160.383 57.4706 162.161L58.0888 161.543C55.1604 156.803 52.5029 151.889 50.3495 146.741C47.3503 139.587 45.4293 132.035 44.5479 124.329C44.017 119.665 43.8327 114.967 43.8486 110.275C43.8495 109.723 42.9998 109.73 42.9985 110.271Z" fill="#173637"/>
<path d="M101.94 157.991C102.023 157.738 102.198 157.535 102.331 157.311C103.32 155.625 104.167 153.874 104.815 152.027C105.21 150.904 105.6 149.778 105.864 148.616C106.096 147.595 106.298 146.568 106.402 145.523C106.457 144.981 106.51 144.442 106.528 143.897C106.538 143.606 106.588 143.314 106.565 143.022C106.52 142.49 106.536 141.954 106.394 141.433C106.368 141.336 106.342 141.237 106.303 141.146C106.081 140.612 105.581 140.505 105.158 140.893C104.954 141.081 104.808 141.31 104.671 141.547C104.042 142.644 103.518 143.793 103.056 144.968C102.345 146.771 101.704 148.6 101.108 150.443C101.001 150.776 100.896 151.112 100.745 151.443C100.745 151.263 100.718 151.078 100.75 150.904C100.799 150.651 100.784 150.401 100.8 150.151C100.896 148.598 100.883 147.042 100.844 145.487C100.828 144.867 100.771 144.242 100.698 143.621C100.648 143.202 100.611 142.78 100.554 142.363C100.384 141.156 100.217 139.947 99.7642 138.804C99.6753 138.577 99.5576 138.363 99.3852 138.189C99.0373 137.832 98.606 137.858 98.2898 138.249C97.9839 138.627 97.8349 139.08 97.7039 139.536C97.5419 140.109 97.4582 140.695 97.3825 141.287C97.2545 142.287 97.2257 143.293 97.1892 144.301C97.1656 144.986 97.1394 145.675 97.1604 146.36C97.1837 147.126 97.1811 147.895 97.2231 148.661C97.2648 149.426 97.291 150.19 97.3301 150.956C97.3301 150.977 97.325 150.995 97.3172 151.042C97.2124 150.872 97.1995 150.698 97.1604 150.536C96.6767 148.501 96.0568 146.508 95.2385 144.583C94.7315 143.392 94.1692 142.227 93.3929 141.18C93.0793 140.755 92.7446 140.349 92.2816 140.078C92.0359 139.934 91.7772 139.822 91.4765 139.9C91.1629 139.981 90.9799 140.195 90.8699 140.484C90.7131 140.899 90.674 141.331 90.7105 141.763C90.7681 142.446 90.8622 143.124 90.9954 143.796C91.2385 145.026 91.5994 146.222 92.041 147.394C92.8568 149.565 93.7929 151.691 94.6895 153.833C94.7289 153.924 94.7916 154.01 94.7706 154.119C94.802 154.124 94.8178 154.143 94.8178 154.171C94.8178 154.179 94.7994 154.187 94.7891 154.195C94.781 154.168 94.7758 154.145 94.768 154.119C94.5954 153.999 94.5145 153.806 94.402 153.645C93.7877 152.767 93.1549 151.905 92.4594 151.089C91.7824 150.297 91.0791 149.528 90.1822 148.971C89.8634 148.772 89.5365 148.59 89.1417 148.593C88.6949 148.595 88.3916 148.796 88.2503 149.226C88.1588 149.505 88.1352 149.786 88.1691 150.086C88.2842 151.076 88.6975 151.943 89.2229 152.764C89.9549 153.905 90.802 154.958 91.7093 155.967C92.6188 156.977 93.649 157.853 94.7131 158.692C95.6569 159.437 96.5852 160.203 97.5183 160.959C97.7682 161.164 98.0274 161.358 98.295 161.54C98.5643 161.722 98.8517 161.767 99.1602 161.681C100.389 161.331 101.597 160.938 102.729 160.333C103.615 159.859 104.439 159.296 105.215 158.658C105.961 158.048 106.677 157.41 107.333 156.706C107.911 156.084 108.455 155.432 108.85 154.674C108.975 154.434 109.033 154.184 109.006 153.916C108.98 153.645 108.774 153.415 108.502 153.39C108.272 153.369 108.039 153.371 107.811 153.444C107.202 153.64 106.69 154.002 106.204 154.398C105.124 155.281 104.052 156.172 103.027 157.118C102.724 157.4 102.407 157.668 102.096 157.941C102.057 157.975 102.018 158.006 101.965 158.012C101.953 158.059 101.934 158.098 101.882 158.113C101.88 158.121 101.877 158.128 101.871 158.134C101.869 158.137 101.861 158.137 101.856 158.137C101.866 158.129 101.877 158.124 101.887 158.116C101.874 158.067 101.892 158.025 101.94 157.991ZM58.7979 163.53C58.8551 163.355 58.9747 163.215 59.0659 163.06C59.7423 161.893 60.3217 160.68 60.7653 159.401C61.0356 158.624 61.3021 157.845 61.4828 157.04C61.6419 156.333 61.7796 155.622 61.8514 154.899C61.8889 154.524 61.9245 154.15 61.9371 153.773C61.9442 153.571 61.9782 153.369 61.9623 153.167C61.9316 152.799 61.9426 152.428 61.8459 152.067C61.8281 152 61.81 151.932 61.7832 151.869C61.6312 151.499 61.2895 151.425 60.9998 151.693C60.8604 151.823 60.7602 151.982 60.667 152.146C60.236 152.906 59.8781 153.701 59.5616 154.515C59.0749 155.763 58.6368 157.029 58.2288 158.305C58.1554 158.535 58.0839 158.768 57.9801 158.997C57.9801 158.873 57.9624 158.745 57.9837 158.624C58.0176 158.449 58.007 158.276 58.0177 158.102C58.0839 157.027 58.0752 155.951 58.0484 154.874C58.0344 154.442 58.001 154.011 57.9481 153.582C57.9142 153.292 57.889 153 57.8495 152.711C57.7334 151.876 57.619 151.039 57.3095 150.247C57.2488 150.09 57.1683 149.942 57.0499 149.821C56.8123 149.574 56.5171 149.592 56.3004 149.863C56.0912 150.124 55.9894 150.438 55.8998 150.754C55.7889 151.151 55.7317 151.556 55.6799 151.966C55.592 152.659 55.5726 153.355 55.5474 154.053C55.5312 154.527 55.5134 155.004 55.5277 155.478C55.5438 156.008 55.5422 156.54 55.5707 157.071C55.5994 157.601 55.6172 158.13 55.6441 158.66C55.6441 158.674 55.6405 158.687 55.635 158.719C55.5635 158.602 55.5545 158.481 55.5277 158.37C55.1969 156.961 54.773 155.581 54.213 154.248C53.8661 153.424 53.4813 152.617 52.95 151.892C52.7354 151.598 52.5064 151.316 52.1899 151.129C52.0218 151.03 51.8446 150.952 51.6389 151.006C51.4242 151.062 51.2991 151.21 51.2238 151.41C51.1164 151.697 51.0896 151.997 51.1148 152.296C51.1537 152.768 51.2188 153.238 51.3098 153.703C51.476 154.555 51.723 155.382 52.0253 156.194C52.5834 157.697 53.2239 159.169 53.8373 160.651C53.8641 160.715 53.9071 160.774 53.8929 160.85C53.9142 160.853 53.9249 160.866 53.9249 160.886C53.9249 160.891 53.9126 160.897 53.9052 160.902C53.9 160.884 53.8964 160.868 53.8909 160.85C53.7729 160.767 53.7173 160.634 53.6407 160.522C53.22 159.914 52.7874 159.317 52.3115 158.752C51.8481 158.204 51.367 157.671 50.7533 157.285C50.5351 157.148 50.3116 157.022 50.0413 157.024C49.7355 157.026 49.5279 157.165 49.4315 157.462C49.3699 157.654 49.3509 157.857 49.3759 158.058C49.4548 158.743 49.7374 159.344 50.097 159.912C50.5978 160.702 51.1772 161.431 51.798 162.129C52.4204 162.829 53.1253 163.435 53.8534 164.016C54.4991 164.532 55.1342 165.062 55.7727 165.585C55.9444 165.726 56.12 165.863 56.304 165.987C56.3885 166.048 56.486 166.088 56.5888 166.105C56.6915 166.122 56.7968 166.115 56.8963 166.085C57.737 165.843 58.5634 165.571 59.3378 165.152C59.9418 164.823 60.5118 164.434 61.0392 163.992C61.5491 163.57 62.0389 163.128 62.4881 162.641C62.8835 162.21 63.2553 161.759 63.5256 161.234C63.6123 161.073 63.6496 160.891 63.633 160.709C63.6149 160.522 63.4736 160.363 63.2877 160.345C63.1302 160.33 62.9711 160.332 62.8153 160.383C62.3985 160.518 62.048 160.769 61.7153 161.043C60.9765 161.654 60.2431 162.271 59.5418 162.926C59.3343 163.121 59.118 163.307 58.9052 163.496C58.8784 163.52 58.8515 163.541 58.8156 163.545C58.8066 163.577 58.7943 163.604 58.7584 163.615C58.7565 163.621 58.7548 163.626 58.7513 163.63C58.7494 163.631 58.7442 163.631 58.7406 163.631C58.7477 163.626 58.7549 163.622 58.762 163.617C58.7529 163.583 58.7655 163.554 58.7979 163.53ZM241.763 160.237C241.82 160.062 241.94 159.921 242.031 159.766C242.707 158.599 243.287 157.387 243.731 156.108C244.001 155.331 244.267 154.551 244.448 153.747C244.607 153.04 244.745 152.329 244.816 151.605C244.854 151.23 244.89 150.857 244.902 150.48C244.909 150.278 244.943 150.076 244.927 149.874C244.897 149.506 244.908 149.134 244.811 148.773C244.793 148.707 244.775 148.638 244.748 148.575C244.596 148.205 244.255 148.131 243.965 148.4C243.825 148.53 243.725 148.689 243.632 148.853C243.201 149.612 242.843 150.408 242.527 151.221C242.04 152.47 241.602 153.736 241.194 155.011C241.121 155.242 241.049 155.475 240.945 155.704C240.945 155.58 240.928 155.451 240.949 155.331C240.983 155.156 240.972 154.982 240.983 154.809C241.049 153.734 241.04 152.657 241.013 151.58C241.003 151.151 240.963 150.718 240.913 150.289C240.879 149.998 240.854 149.706 240.815 149.417C240.698 148.582 240.584 147.745 240.274 146.953C240.214 146.796 240.133 146.648 240.015 146.528C239.777 146.28 239.482 146.299 239.266 146.569C239.057 146.831 238.954 147.145 238.865 147.46C238.754 147.857 238.697 148.263 238.645 148.672C238.557 149.365 238.538 150.062 238.513 150.76C238.496 151.234 238.479 151.71 238.493 152.185C238.509 152.715 238.507 153.247 238.536 153.777C238.564 154.308 238.582 154.836 238.609 155.366C238.609 155.381 238.605 155.394 238.6 155.426C238.529 155.309 238.52 155.188 238.493 155.076C238.162 153.667 237.738 152.287 237.178 150.954C236.831 150.13 236.447 149.324 235.915 148.598C235.701 148.305 235.472 148.023 235.155 147.835C234.987 147.736 234.81 147.659 234.604 147.713C234.389 147.769 234.264 147.917 234.189 148.117C234.082 148.404 234.055 148.703 234.08 149.003C234.119 149.475 234.184 149.944 234.275 150.41C234.441 151.261 234.688 152.089 234.99 152.901C235.548 154.403 236.189 155.875 236.803 157.358C236.829 157.421 236.872 157.481 236.858 157.556C236.879 157.56 236.89 157.573 236.89 157.593C236.89 157.598 236.878 157.603 236.87 157.609C236.865 157.591 236.861 157.574 236.856 157.556C236.738 157.474 236.683 157.34 236.606 157.228C236.185 156.62 235.752 156.023 235.277 155.459C234.813 154.91 234.332 154.378 233.719 153.992C233.5 153.855 233.277 153.729 233.007 153.73C232.701 153.732 232.493 153.871 232.396 154.169C232.335 154.361 232.316 154.564 232.341 154.764C232.42 155.45 232.702 156.05 233.062 156.618C233.563 157.409 234.142 158.137 234.763 158.835C235.386 159.535 236.091 160.141 236.819 160.722C237.464 161.238 238.099 161.768 238.738 162.292C238.909 162.434 239.086 162.568 239.269 162.694C239.454 162.82 239.65 162.851 239.861 162.791C240.702 162.55 241.528 162.277 242.303 161.859C242.907 161.529 243.477 161.141 244.004 160.699C244.514 160.277 245.004 159.835 245.453 159.348C245.848 158.917 246.221 158.466 246.491 157.941C246.577 157.78 246.615 157.598 246.598 157.416C246.58 157.228 246.439 157.069 246.253 157.051C246.095 157.037 245.936 157.039 245.781 157.089C245.364 157.225 245.013 157.475 244.681 157.749C243.942 158.361 243.208 158.978 242.507 159.633C242.3 159.827 242.083 160.013 241.87 160.203C241.843 160.226 241.816 160.248 241.781 160.251C241.772 160.284 241.759 160.311 241.723 160.322C241.722 160.327 241.72 160.332 241.716 160.336C241.715 160.338 241.709 160.338 241.706 160.338C241.713 160.333 241.72 160.329 241.727 160.323C241.718 160.289 241.731 160.26 241.763 160.237Z" fill="#0F8B8D"/>
</g>
<defs>
<linearGradient id="paint0_linear_426_345" x1="152.863" y1="220.598" x2="148.875" y2="-121.939" gradientUnits="userSpaceOnUse">
<stop stop-color="white"/>
<stop offset="1" stop-color="#EEEEEE"/>
</linearGradient>
<clipPath id="clip0_426_345">
<rect width="291" height="194" fill="white"/>
</clipPath>
</defs>
</svg>
